<svg id="Layer_1" data-name="Layer 1" xmlns="http://www.w3.org/2000/svg" xmlns:xlink="http://www.w3.org/1999/xlink" viewBox="0 0 1097.2147 635.5345"><defs><style>.cls-1{fill:url(#linear-gradient);}.cls-2{fill:url(#linear-gradient-2);}.cls-3{fill:#fff;}.cls-4,.cls-5{opacity:0.15;}.cls-4{fill:url(#linear-gradient-3);}.cls-5{fill:url(#linear-gradient-4);}.cls-6{fill:url(#linear-gradient-5);}.cls-7{fill:url(#linear-gradient-6);}.cls-8{fill:url(#linear-gradient-7);}.cls-9{fill:url(#linear-gradient-8);}.cls-10{fill:url(#linear-gradient-9);}</style><linearGradient id="linear-gradient" x1="3.0519" y1="487.7528" x2="36.3764" y2="487.7528" gradientUnits="userSpaceOnUse"><stop offset="0" stop-color="#f6b99a"/><stop offset="1" stop-color="#f35099"/></linearGradient><linearGradient id="linear-gradient-2" x1="67.7147" y1="40.1936" x2="109.0371" y2="40.1936" gradientUnits="userSpaceOnUse"><stop offset="0" stop-color="#e1b0a6"/><stop offset="1" stop-color="#625ab6"/></linearGradient><linearGradient id="linear-gradient-3" x1="647.2978" y1="250.9949" x2="1026.6194" y2="250.9949" xlink:href="#linear-gradient"/><linearGradient id="linear-gradient-4" x1="664.1565" y1="250.9949" x2="1009.7607" y2="250.9949" xlink:href="#linear-gradient"/><linearGradient id="linear-gradient-5" x1="760.379" y1="383.6346" x2="913.5382" y2="118.3553" xlink:href="#linear-gradient"/><linearGradient id="linear-gradient-6" x1="1019.3873" y1="37.99" x2="1095.3672" y2="37.99" gradientUnits="userSpaceOnUse"><stop offset="0" stop-color="#f37564"/><stop offset="1" stop-color="#563378"/></linearGradient><linearGradient id="linear-gradient-7" x1="415.1608" y1="568.0414" x2="453.8172" y2="568.0414" gradientUnits="userSpaceOnUse"><stop offset="0" stop-color="#eb84f1"/><stop offset="1" stop-color="#6159b6"/></linearGradient><linearGradient id="linear-gradient-8" x1="1063.8902" y1="280.0583" x2="1097.2147" y2="280.0583" gradientUnits="userSpaceOnUse"><stop offset="0" stop-color="#ec499b"/><stop offset="0.0921" stop-color="#e7499b"/><stop offset="0.1978" stop-color="#d9489b"/><stop offset="0.3102" stop-color="#c2479b"/><stop offset="0.4266" stop-color="#a2459a"/><stop offset="0.495" stop-color="#8c449a"/><stop offset="0.7635" stop-color="#5e459b"/><stop offset="0.9987" stop-color="#39459c"/></linearGradient><linearGradient id="linear-gradient-9" x1="1052.5498" y1="329.7047" x2="1079.2094" y2="329.7047" gradientUnits="userSpaceOnUse"><stop offset="0" stop-color="#40aaab"/><stop offset="0.154" stop-color="#3ba6ad"/><stop offset="0.3308" stop-color="#2d9bb4"/><stop offset="0.5182" stop-color="#1688bf"/><stop offset="0.5284" stop-color="#1587c0"/><stop offset="0.7169" stop-color="#2d6ca6"/><stop offset="1" stop-color="#4d4882"/></linearGradient></defs><title>background-circles</title><circle class="cls-1" cx="19.7142" cy="487.7528" r="16.6623"/><circle class="cls-2" cx="88.3759" cy="40.1936" r="20.6612"/><ellipse class="cls-3" cx="354.7361" cy="272.9202" rx="264.416" ry="252.3857"/><ellipse class="cls-3" cx="152.4198" cy="169.558" rx="82.8291" ry="79.0606"/><ellipse class="cls-3" cx="251.9962" cy="474.3726" rx="168.844" ry="161.1619"/><ellipse class="cls-3" cx="88.3379" cy="444.1995" rx="47.786" ry="45.6119"/><ellipse class="cls-3" cx="567.7963" cy="304.2198" rx="212.6478" ry="202.9728"/><ellipse class="cls-3" cx="940.0209" cy="77.0487" rx="40.6181" ry="38.7701"/><ellipse class="cls-3" cx="834.73" cy="245.037" rx="215.2929" ry="205.4975"/><circle class="cls-4" cx="836.9586" cy="250.9949" r="189.6608"/><circle class="cls-5" cx="836.9586" cy="250.9949" r="172.8021"/><circle class="cls-6" cx="836.9586" cy="250.9949" r="153.1335"/><circle class="cls-7" cx="1057.3773" cy="37.99" r="37.99"/><circle class="cls-8" cx="434.489" cy="568.0414" r="19.3282"/><circle class="cls-9" cx="1080.5524" cy="280.0583" r="16.6623"/><circle class="cls-10" cx="1065.8796" cy="329.7047" r="13.3298"/><path class="cls-3" d="M39.8239,81.4582l4.4912,9.1a1.2606,1.2606,0,0,0,.949.6895l10.0427,1.4593a1.26,1.26,0,0,1,.6985,2.15l-7.267,7.0835a1.26,1.26,0,0,0-.3624,1.1156l1.7155,10.0022a1.26,1.26,0,0,1-1.8287,1.3286L39.28,109.6645a1.2606,1.2606,0,0,0-1.173,0l-8.9825,4.7224a1.26,1.26,0,0,1-1.8287-1.3286l1.7155-10.0022a1.2607,1.2607,0,0,0-.3625-1.1156L21.382,94.857a1.26,1.26,0,0,1,.6985-2.15l10.0427-1.4593a1.26,1.26,0,0,0,.949-.6895l4.4913-9.1A1.26,1.26,0,0,1,39.8239,81.4582Z"/><path class="cls-3" d="M653.4225,71.6475l3.7866,7.6725a1.0628,1.0628,0,0,0,.8.5813l8.4672,1.23a1.0626,1.0626,0,0,1,.5889,1.8125l-6.1269,5.9722a1.0625,1.0625,0,0,0-.3056.9406l1.4463,8.4329a1.0626,1.0626,0,0,1-1.5418,1.12l-7.5732-3.9815a1.0624,1.0624,0,0,0-.989,0L644.4019,99.41a1.0626,1.0626,0,0,1-1.5418-1.12l1.4463-8.4329a1.0622,1.0622,0,0,0-.3056-.9406l-6.1269-5.9722a1.0626,1.0626,0,0,1,.589-1.8125l8.4671-1.23a1.0628,1.0628,0,0,0,.8-.5813l3.7866-7.6725A1.0626,1.0626,0,0,1,653.4225,71.6475Z"/><path class="cls-3" d="M1068.5794,114.1878l2.7628,5.598a.7752.7752,0,0,0,.5837.4241l6.1778.8977a.7752.7752,0,0,1,.43,1.3224l-4.47,4.3574a.7754.7754,0,0,0-.223.6862l1.0553,6.1528a.7753.7753,0,0,1-1.1249.8173l-5.5256-2.9049a.7749.7749,0,0,0-.7215,0l-5.5256,2.9049a.7753.7753,0,0,1-1.1249-.8173l1.0553-6.1528a.7751.7751,0,0,0-.223-.6862l-4.47-4.3574a.7752.7752,0,0,1,.43-1.3224l6.1777-.8977a.7756.7756,0,0,0,.5838-.4241l2.7627-5.598A.7753.7753,0,0,1,1068.5794,114.1878Z"/><path class="cls-3" d="M897.5794,9.1878l2.7628,5.598a.7752.7752,0,0,0,.5837.4241l6.1778.8977a.7752.7752,0,0,1,.43,1.3224l-4.47,4.3574a.7754.7754,0,0,0-.223.6862l1.0553,6.1528a.7753.7753,0,0,1-1.1249.8173l-5.5256-2.9049a.7749.7749,0,0,0-.7215,0l-5.5256,2.9049a.7753.7753,0,0,1-1.1249-.8173l1.0553-6.1528a.7751.7751,0,0,0-.223-.6862l-4.47-4.3574a.7752.7752,0,0,1,.43-1.3224l6.1777-.8977a.7756.7756,0,0,0,.5838-.4241l2.7627-5.598A.7753.7753,0,0,1,897.5794,9.1878Z"/><path class="cls-3" d="M11.5794,423.1878l2.7628,5.598a.7752.7752,0,0,0,.5837.4241l6.1778.8977a.7752.7752,0,0,1,.43,1.3224l-4.47,4.3574a.7754.7754,0,0,0-.223.6862l1.0553,6.1528a.7753.7753,0,0,1-1.1249.8173l-5.5256-2.9049a.7749.7749,0,0,0-.7215,0l-5.5256,2.9049a.7753.7753,0,0,1-1.1249-.8173l1.0553-6.1528a.7751.7751,0,0,0-.223-.6862L.235,431.43a.7752.7752,0,0,1,.43-1.3224l6.1777-.8977a.7756.7756,0,0,0,.5838-.4241l2.7627-5.598A.7753.7753,0,0,1,11.5794,423.1878Z"/><path class="cls-3" d="M475.4225,522.6475l3.7866,7.6725a1.0628,1.0628,0,0,0,.8.5813l8.4672,1.23a1.0626,1.0626,0,0,1,.5889,1.8125l-6.1269,5.9722a1.0625,1.0625,0,0,0-.3056.9406l1.4463,8.4329a1.0626,1.0626,0,0,1-1.5418,1.12l-7.5732-3.9815a1.0624,1.0624,0,0,0-.989,0l-7.5732,3.9815a1.0626,1.0626,0,0,1-1.5418-1.12l1.4463-8.4329a1.0622,1.0622,0,0,0-.3056-.9406l-6.1269-5.9722a1.0626,1.0626,0,0,1,.589-1.8125l8.4671-1.23a1.0628,1.0628,0,0,0,.8-.5813l3.7866-7.6725A1.0626,1.0626,0,0,1,475.4225,522.6475Z"/></svg>