<svg id="Layer_1" data-name="Layer 1" xmlns="http://www.w3.org/2000/svg" xmlns:xlink="http://www.w3.org/1999/xlink" width="2048" height="16384" viewBox="0 0 2048 16384"><defs><style>.cls-1{fill:url(#linear-gradient);}.cls-2{fill:#010101;}.cls-3{fill:none;stroke:#fff;stroke-linecap:round;stroke-miterlimit:10;stroke-width:10px;}.cls-4{opacity:0.81;fill:url(#linear-gradient-2);}.cls-5{opacity:0.27;fill:url(#linear-gradient-3);}.cls-10,.cls-6{opacity:0.58;}.cls-6{fill:url(#linear-gradient-4);}.cls-32,.cls-7{fill:#fff;}.cls-15,.cls-7{opacity:0.2;}.cls-8{fill:url(#linear-gradient-5);}.cls-9{fill:url(#linear-gradient-6);}.cls-10,.cls-16,.cls-17,.cls-27,.cls-30{fill:#f3b9d4;}.cls-11{fill:url(#linear-gradient-7);}.cls-12{fill:url(#linear-gradient-8);}.cls-13{opacity:0.15;fill:url(#linear-gradient-9);}.cls-14{fill:url(#linear-gradient-10);}.cls-15{fill:url(#linear-gradient-11);}.cls-16{opacity:0.1;}.cls-17{opacity:0.21;}.cls-18,.cls-33,.cls-34{fill:#f0c2db;}.cls-18{opacity:0.17;}.cls-19{fill:#f6927b;}.cls-20{opacity:0.35;fill:url(#linear-gradient-12);}.cls-21{fill:url(#linear-gradient-13);}.cls-22{opacity:0.33;fill:url(#linear-gradient-14);}.cls-23{fill:url(#linear-gradient-15);}.cls-24{opacity:0.14;fill:url(#linear-gradient-16);}.cls-25{fill:url(#linear-gradient-17);}.cls-26{fill:url(#linear-gradient-18);}.cls-27{opacity:0.18;}.cls-28{opacity:0.54;}.cls-29{fill:#b54a7b;}.cls-30{opacity:0.43;}.cls-31{opacity:0.5;}.cls-34{opacity:0.26;}.cls-35{fill:url(#linear-gradient-19);}.cls-36{fill:url(#linear-gradient-20);}.cls-37{fill:url(#linear-gradient-21);}.cls-38{fill:url(#linear-gradient-22);}</style><linearGradient id="linear-gradient" x1="959.2988" y1="16390.2871" x2="959.2988" y2="-5.5834" gradientUnits="userSpaceOnUse"><stop offset="0.0004" stop-color="#d2e4f5"/><stop offset="0.2496" stop-color="#6eb4e4"/><stop offset="0.4475" stop-color="#32a4da"/><stop offset="0.6562" stop-color="#1370b5"/><stop offset="0.8153" stop-color="#424987"/><stop offset="0.8824" stop-color="#393a6d"/><stop offset="0.9944" stop-color="#2a2345"/></linearGradient><linearGradient id="linear-gradient-2" x1="960.6519" y1="13222.1921" x2="960.6519" y2="15299.6555" gradientUnits="userSpaceOnUse"><stop offset="0.0004" stop-color="#84bde7"/><stop offset="0.2736" stop-color="#af7fb8"/><stop offset="0.507" stop-color="#cd7fb5"/><stop offset="0.763" stop-color="#fed060"/></linearGradient><linearGradient id="linear-gradient-3" x1="1615.8546" y1="14600.5404" x2="1615.8546" y2="15687.4962" gradientUnits="userSpaceOnUse"><stop offset="0" stop-color="#f68a3d"/><stop offset="0.2862" stop-color="#ef4c62"/><stop offset="1" stop-color="#c24097"/></linearGradient><linearGradient id="linear-gradient-4" x1="1615.8546" y1="14661.4386" x2="1615.8546" y2="15626.598" xlink:href="#linear-gradient-3"/><linearGradient id="linear-gradient-5" x1="376.9437" y1="14810.5936" x2="193.9381" y2="15127.5685" gradientUnits="userSpaceOnUse"><stop offset="0" stop-color="#3fc6ec"/><stop offset="1" stop-color="#3c89c9"/></linearGradient><linearGradient id="linear-gradient-6" x1="207.3134" y1="14865.2973" x2="73.9106" y2="15096.3578" xlink:href="#linear-gradient-5"/><linearGradient id="linear-gradient-7" x1="233.9641" y1="14937.7719" x2="-248.2637" y2="15773.0148" xlink:href="#linear-gradient-3"/><linearGradient id="linear-gradient-8" x1="857.8203" y1="14633.5142" x2="857.8203" y2="15912.0782" gradientUnits="userSpaceOnUse"><stop offset="0.0004" stop-color="#ea4b9a"/><stop offset="0.5432" stop-color="#92459a"/><stop offset="1" stop-color="#36449a"/></linearGradient><linearGradient id="linear-gradient-9" x1="718.6926" y1="15352.607" x2="2311.2181" y2="15352.607" gradientUnits="userSpaceOnUse"><stop offset="0.0004" stop-color="#273c93"/><stop offset="0.5432" stop-color="#292663"/><stop offset="1" stop-color="#0e1333"/></linearGradient><linearGradient id="linear-gradient-10" x1="1518.3415" y1="14991.521" x2="1518.3415" y2="15874.9872" gradientUnits="userSpaceOnUse"><stop offset="0.0004" stop-color="#fcdfe8"/><stop offset="0.5432" stop-color="#c17fb6"/><stop offset="1" stop-color="#273c93"/></linearGradient><linearGradient id="linear-gradient-11" x1="300.6119" y1="14866.0849" x2="-335.0304" y2="15967.0498" gradientUnits="userSpaceOnUse"><stop offset="0.0004" stop-color="#273c93"/><stop offset="0.5432" stop-color="#5b4b9e"/><stop offset="1" stop-color="#3d479c"/></linearGradient><linearGradient id="linear-gradient-12" x1="1866.7382" y1="15087.4694" x2="2291.7483" y2="15823.6085" gradientUnits="userSpaceOnUse"><stop offset="0" stop-color="#f79756"/><stop offset="0.2862" stop-color="#d066a7"/><stop offset="1" stop-color="#4b55a4"/></linearGradient><linearGradient id="linear-gradient-13" x1="551.3489" y1="15482.3618" x2="551.3489" y2="15822.8175" xlink:href="#linear-gradient-11"/><linearGradient id="linear-gradient-14" x1="-21.7443" y1="15614.5951" x2="1231.5269" y2="15614.5951" xlink:href="#linear-gradient-9"/><linearGradient id="linear-gradient-15" x1="1211.668" y1="15482.5586" x2="1211.668" y2="15740.3039" xlink:href="#linear-gradient-11"/><linearGradient id="linear-gradient-16" x1="1210.587" y1="15611.4312" x2="2224.5601" y2="15611.4312" xlink:href="#linear-gradient-9"/><linearGradient id="linear-gradient-17" x1="187.0835" y1="15812.7196" x2="2096.7814" y2="15812.7196" xlink:href="#linear-gradient-5"/><linearGradient id="linear-gradient-18" x1="1015.5973" y1="15624.6917" x2="1015.5973" y2="16190.3056" xlink:href="#linear-gradient-3"/><linearGradient id="linear-gradient-19" x1="-307.5788" y1="15952.6272" x2="-307.5788" y2="16754.9013" gradientUnits="userSpaceOnUse"><stop offset="0" stop-color="#2bb673"/><stop offset="0.1833" stop-color="#229b77"/><stop offset="0.357" stop-color="#197d7c"/></linearGradient><linearGradient id="linear-gradient-20" x1="2244.1217" y1="15952.6272" x2="2244.1217" y2="16754.9013" xlink:href="#linear-gradient-19"/><linearGradient id="linear-gradient-21" x1="954.1543" y1="16011.9597" x2="954.1543" y2="16868.2918" gradientUnits="userSpaceOnUse"><stop offset="0" stop-color="#2bb673"/><stop offset="0.879" stop-color="#1b847b"/><stop offset="0.9944" stop-color="#197d7c"/></linearGradient><linearGradient id="linear-gradient-22" x1="236.0994" y1="16230.6739" x2="236.0994" y2="17047.1878" gradientTransform="matrix(0, 1.2025, -0.5976, 0, 10454.1324, 16170.0209)" gradientUnits="userSpaceOnUse"><stop offset="0" stop-color="#2bb673"/><stop offset="0.2571" stop-color="#2ab274"/><stop offset="0.4933" stop-color="#26a775"/><stop offset="0.7206" stop-color="#209578"/><stop offset="0.925" stop-color="#197d7c"/></linearGradient></defs><title>background</title><rect class="cls-1" x="-32.7813" y="-5.5834" width="1984.1602" height="16395.8705"/><path class="cls-2" d="M1950.5765-4.7814V16389.4844H-31.9794V-4.7814H1950.5765m1.6021-1.602H-33.5814V16391.0859h1985.76V-6.3834Z"/><line class="cls-3" x1="18.6721" y1="13214.7519" x2="1894.8254" y2="13214.7519"/><line class="cls-3" x1="18.6721" y1="10316.0178" x2="1894.8254" y2="10316.0178"/><line class="cls-3" x1="18.6721" y1="7264.5322" x2="1894.8254" y2="7264.5322"/><line class="cls-3" x1="18.6721" y1="4043.5196" x2="1894.8254" y2="4043.5196"/><rect class="cls-4" x="-30.0391" y="13222.1921" width="1981.382" height="2077.4634"/><circle class="cls-5" cx="1615.8546" cy="15144.0183" r="543.4779"/><circle class="cls-6" cx="1615.8546" cy="15144.0183" r="482.5797"/><polygon class="cls-7" points="567.329 14939.23 822.263 14691.938 1294.362 14968.323 1423.403 14837.404 1624.832 14924.683 1892.355 14819.22 1999.364 14731.941 2304.655 14997.416 2609.945 15211.978 2745.468 15847.72 312.396 15572.006 567.329 14939.23"/><polygon class="cls-8" points="87.22 14979.992 240.611 14843.655 301.967 14767.306 511.995 14909.097 268.929 15170.864 87.22 14979.992"/><polygon class="cls-9" points="-26.053 14892.736 68.341 14797.3 115.538 14827.294 150.936 14832.748 335.005 15020.893 42.382 15078.155 -26.053 14892.736"/><polygon class="cls-10" points="301.967 14767.306 300.723 14807.221 259.949 14845.502 240.611 14843.655 301.967 14767.306"/><polygon class="cls-10" points="68.341 14797.3 68.817 14833.723 7.655 14860.225 68.341 14797.3"/><path class="cls-11" d="M-1235.6709,15681.8046s430.8286-471.0046,606.4742-566.7373,341.3488-245.0755,341.3488-245.0755h89.48l56.3392-53.61,112.6782-30.6344,129.2486,118.7084h33.1407l702.5821,792.6663L600.322,15869.4405Z"/><polygon class="cls-12" points="-595.578 15912.078 31.802 15255.608 112.21 15146.539 140.179 15130.381 161.155 15073.827 423.358 14787.018 465.31 14778.939 636.616 14633.514 776.458 14819.334 807.922 14807.216 860.362 14855.69 979.228 14883.967 1007.196 14932.442 1171.51 15057.669 1272.895 15045.55 2311.218 15833.266 -595.578 15912.078"/><polygon class="cls-13" points="718.693 14871.948 770.779 14945.506 868.429 15156.35 1022.528 15306.609 1057.252 15236.395 1057.252 15182.898 1106.444 15122.714 1051.464 15002.347 976.229 14925.445 979.228 14883.967 1007.196 14932.442 1171.51 15057.669 1272.895 15045.55 2311.218 15833.266 1471.184 15269.59 1308.36 15424.879 1011.141 15580.168 765.612 15577.182 745.467 15421.743 804.38 15317.372 724.587 15177.796 773.366 15066.52 747.52 14959.012 718.693 14871.948"/><polygon class="cls-14" points="291.215 15874.987 935.456 15362.359 1034.57 15365.085 1079.408 15316.004 1128.965 15299.643 1195.041 15226.021 1277.636 15209.661 1416.868 15067.87 1641.054 15179.667 1818.044 14991.521 2013.912 15212.388 2176.742 15146.946 2235.739 15081.504 2745.468 15847.72 291.215 15874.987"/><polygon class="cls-15" points="-534.703 15851.769 31.802 15255.608 112.21 15146.539 140.179 15130.381 161.155 15073.827 237.441 15041.898 392.467 14919.117 364.434 15089.906 268.929 15170.864 237.013 15354.923 242.11 15428.538 45.881 15625.829 119.785 15416.76 91.753 15298.975 -262.479 15646.441 -534.703 15851.769"/><polygon class="cls-16" points="619.277 14763.052 611.631 14874.948 642.212 14916.173 625.743 15161.313 746.698 15325.476 690.633 15387.313 695.729 15540.434 598.889 15331.366 456.177 15399.092 366.982 15534.545 323.659 15372.59 438.338 15160.577 496.952 15125.241 494.404 14954.453 560.663 14848.446 619.277 14763.052"/><polygon class="cls-17" points="636.616 14633.514 615.511 14706.132 555.566 14765.997 476.565 14898.505 463.823 14972.121 412.854 15051.626 435.79 14866.114 346.595 14925.007 242.11 15036.903 161.155 15073.827 423.358 14787.018 465.31 14778.939 636.616 14633.514"/><polygon class="cls-18" points="436.906 15859.948 745.265 15556.651 821.718 15559.595 949.14 15388.807 1047.07 15401.792 1143.293 15322.793 1206.817 15241.5 1275.529 15211.577 1416.265 15067.723 1292.694 15316.942 1191.405 15425.199 1084.206 15480.09 852.299 15862.892 699.394 15865.837 709.588 15815.778 793.686 15715.661 793.686 15656.768 436.906 15859.948"/><polygon class="cls-19" points="1479.212 15276.911 1550.568 15273.966 1583.697 15235.686 1494.212 15125.264 1416.265 15066.472 1433.34 15162.07 1474.115 15209.184 1479.212 15276.911"/><polygon class="cls-20" points="1741.7 15268.077 1897.154 15406.475 1881.863 15220.963 1881.863 15162.07 1817.942 14991.516 2583.739 15851.114 2078.092 15854.058 1810.507 15468.312 1815.604 15424.142 1741.7 15268.077"/><path class="cls-21" d="M-480.2366,15840.2811s610.1082-268.8893,716.7887-357.9193c69.8942,29.6767,88.2874,49.4611,88.2874,49.4611l165.5388-49.4611,198.6465,65.9482,294.2912,9.8922,599.6183,108.8145Z"/><path class="cls-22" d="M236.5521,15482.3618l-8.3462,48.3088,28.1633,1.5778-3.52,39.4448,149.6181,53.6451-117.9343,4.7334-63.3676,36.2893-56.3268-12.6224-186.5825,93.09,524.5433-20.5113,670.6409-61.534,58.087-61.5341-248.2109-45.0469-294.2912-9.8922-198.6465-65.9482-52.7072,54.62-112.8316-5.1589S311.7864,15512.9427,236.5521,15482.3618Z"/><polygon class="cls-23" points="198.776 15709.297 1035.466 15649.221 1426.786 15562.014 1591.097 15482.559 1906.748 15606.586 2224.56 15689.918 1915.396 15740.304 780.351 15738.366 220.396 15736.428 198.776 15709.297"/><polygon class="cls-24" points="1591.097 15482.559 1677.577 15606.586 1595.421 15600.773 1766.218 15705.421 1489.484 15699.607 1210.587 15738.366 1915.396 15740.304 2224.56 15689.918 1906.748 15606.586 1591.097 15482.559"/><path class="cls-25" d="M2096.7814,15815.72c0,63.5088-427.5,103.9929-954.8489,103.9929s-954.849-44.4841-954.849-107.9929,427.5005-105.993,954.849-105.993S2096.7814,15752.2107,2096.7814,15815.72Z"/><polygon class="cls-26" points="-602.613 15912.655 -365.536 15790.852 -270.127 15814.176 68.141 15650.908 365.932 15746.795 1236.177 15884.148 1564.989 15845.274 1987.374 15687.245 2134.291 15674.076 2295.899 15624.692 2633.807 15917.704 2356.908 16190.306 1378.442 16077.483 204.466 16153.662 -602.613 15912.655"/><polygon class="cls-27" points="54.088 15824.029 -6.851 15820.719 105.794 15721.404 55.935 15693.264 68.141 15650.908 365.932 15746.795 445.573 15795.89 199.972 15752.853 459.023 15950.985 307.7 15902.491 54.088 15824.029"/><g class="cls-28"><polygon class="cls-29" points="-136.115 15876.998 54.088 15824.029 811.474 16059.855 210.464 16106.171 -136.115 15876.998"/><polygon class="cls-30" points="-365.536 15790.852 -383.563 15852.169 -276.459 15867.066 -204.44 15913.413 28.235 15913.413 -239.526 15857.135 -208.133 15819.064 -270.127 15814.176 -365.536 15790.852"/><polygon class="cls-29" points="580.054 16047.158 199.972 15752.853 445.573 15795.89 365.932 15746.795 1236.177 15884.148 1431.369 15894.598 1655.405 15871.516 1779.011 15883.057 1550.975 15995.607 580.054 16047.158"/><polygon class="cls-29" points="1662.614 16007.737 2092.679 15829.449 2094.841 15848.828 2233.208 15757.745 2267.8 15678.29 2263.476 15763.559 2295.906 15761.621 2836.516 16210.909 1662.614 16007.737"/></g><g class="cls-31"><path class="cls-32" d="M690.6015,14114.7385a22.8509,22.8509,0,0,1-1.1468-4.4494,31.7446,31.7446,0,0,1-.4129-5.1372,22.1716,22.1716,0,0,1,.5505-4.9995,12.1426,12.1426,0,0,1,1.6512-4.0364l49.9051-1.1009a4.8678,4.8678,0,0,1,2.11,2.3849,10.9782,10.9782,0,0,1,1.0089,4.5412,18.5179,18.5179,0,0,1-.8714,5.9171,19.0014,19.0014,0,0,1-3.44,6.3294h-14.77q0,2.8447.0919,6.9721.09,4.1286.1835,8.8986.09,4.7718.2291,9.8158.1378,5.0463.2294,9.8164t.1835,8.898q.0906,4.1286.0919,6.972a4.1484,4.1484,0,0,1-2.0642,2.8444,11.1751,11.1751,0,0,1-3.99,1.3759,19.7689,19.7689,0,0,1-4.8623.1378,31,31,0,0,1-4.77-.78,16.7066,16.7066,0,0,1-3.7611-1.3766,3.3852,3.3852,0,0,1-1.8347-1.7428l1.6512-51.8318Z"/><path class="cls-32" d="M747.6621,14102.9961a50.4232,50.4232,0,0,1,9.4492-4.6784,58.3265,58.3265,0,0,1,11.0541-2.9816,47.4864,47.4864,0,0,1,11.3754-.5507,30.5314,30.5314,0,0,1,10.2746,2.4767,20.3692,20.3692,0,0,1,12.1552,16.3755,16.3991,16.3991,0,0,1-1.1464,6.1,30.6728,30.6728,0,0,1-2.9356,5.5962,43.2511,43.2511,0,0,1-4.0824,5.2291q-2.2942,2.5237-4.5869,4.9076l16.4208,24.1274a9.7735,9.7735,0,0,1-3.807,5.2745,20.7036,20.7036,0,0,1-6.3757,2.9815,39.2264,39.2264,0,0,1-7.4308,1.3306q-3.8531.322-6.88.4123l-13.4855-26.6954.1835,24.5856a6.4548,6.4548,0,0,1-4.495,3.7614,18.4138,18.4138,0,0,1-7.11.642,18.068,18.068,0,0,1-6.5591-1.8348q-2.8447-1.4661-2.8437-3.5776Zm19.3568,19.8153a10.8869,10.8869,0,0,0,3.807.0919,17.7024,17.7024,0,0,0,4.6784-1.2387,14.6018,14.6018,0,0,0,4.2659-2.7065,8.4889,8.4889,0,0,0,2.5686-4.4947,3.7487,3.7487,0,0,0-1.2383-3.3485,8.261,8.261,0,0,0-3.7155-1.7435,15.776,15.776,0,0,0-5.1373-.1831,19.1286,19.1286,0,0,0-5.4123,1.4218Z"/><path class="cls-32" d="M805.2735,14135.6546a50.587,50.587,0,0,1,2.66-16.7878,41.7723,41.7723,0,0,1,7.2474-13.1189,32.65,32.65,0,0,1,10.7331-8.5311,29.2894,29.2894,0,0,1,13.1186-3.0275,19.9325,19.9325,0,0,1,11.192,3.0728,24.144,24.144,0,0,1,7.66,8.2108,36.6984,36.6984,0,0,1,4.22,11.7883,52.9189,52.9189,0,0,1,.7339,13.5771,57.9764,57.9764,0,0,1-2.7062,13.715,44.5591,44.5591,0,0,1-6.1006,12.2465,34.5131,34.5131,0,0,1-9.4491,9.0365,26.8607,26.8607,0,0,1-12.7054,4.1284,21.6885,21.6885,0,0,1-10.7334-2.7065,26.97,26.97,0,0,1-8.3939-7.339,35.26,35.26,0,0,1-5.5042-10.8713A44.1536,44.1536,0,0,1,805.2735,14135.6546Zm25.778,14.77a6.41,6.41,0,0,0,5.1833-2.34,18.0243,18.0243,0,0,0,3.44-6.1462,36.437,36.437,0,0,0,1.7432-8.1648,45.3555,45.3555,0,0,0,.1375-8.3479,22.1935,22.1935,0,0,0-1.5137-6.743q-1.1934-2.8427-3.1191-3.4857-2.2943-.4578-4.2659,1.926a23.0476,23.0476,0,0,0-3.486,6.1929,46.5353,46.5353,0,0,0-3.0731,17.0168,19.2555,19.2555,0,0,0,1.2843,6.9261Q828.5735,14150.1492,831.0515,14150.4245Z"/><path class="cls-32" d="M866.37,14103.9132a7.23,7.23,0,0,1,2.9816-3.5317,24.05,24.05,0,0,1,5.8252-2.7977,44.5376,44.5376,0,0,1,7.7059-1.8348,62.0418,62.0418,0,0,1,8.6693-.6886,52.1889,52.1889,0,0,1,8.7608.6427,36.3894,36.3894,0,0,1,7.9354,2.1557,20.0855,20.0855,0,0,1,6.1922,3.8527,12.699,12.699,0,0,1,3.5779,5.78,19.1662,19.1662,0,0,1-.046,8.44,24.2754,24.2754,0,0,1-4.3115,9.4029,33.7556,33.7556,0,0,1-9.2656,8.44,42.3044,42.3044,0,0,1-14.999,5.55l1.4678,27.7962a8.6962,8.6962,0,0,1-4.9082,3.0275,24.9826,24.9826,0,0,1-13.4392-.1831q-2.9373-.9168-3.6695-2.4774Zm21.2831,16.7884a29.341,29.341,0,0,0,3.9905-.367,25.431,25.431,0,0,0,4.9538-1.2387,14.045,14.045,0,0,0,4.22-2.34,4.6457,4.6457,0,0,0,1.7891-3.7608,3.335,3.335,0,0,0-2.9815-2.34,19.3967,19.3967,0,0,0-5.1833-.1379,60.6887,60.6887,0,0,0-7.0636,1.2847Z"/><path class="cls-32" d="M919.3947,14135.6546a50.587,50.587,0,0,1,2.66-16.7878,41.7723,41.7723,0,0,1,7.2474-13.1189,32.65,32.65,0,0,1,10.7331-8.5311,29.2894,29.2894,0,0,1,13.1186-3.0275,19.9325,19.9325,0,0,1,11.192,3.0728,24.1468,24.1468,0,0,1,7.66,8.2108,36.7124,36.7124,0,0,1,4.22,11.7883,52.9189,52.9189,0,0,1,.7339,13.5771,57.977,57.977,0,0,1-2.7065,13.715,44.5416,44.5416,0,0,1-6.1,12.2465,34.5131,34.5131,0,0,1-9.4491,9.0365,26.8607,26.8607,0,0,1-12.7054,4.1284,21.6885,21.6885,0,0,1-10.7334-2.7065,26.97,26.97,0,0,1-8.3939-7.339,35.26,35.26,0,0,1-5.5042-10.8713A44.1536,44.1536,0,0,1,919.3947,14135.6546Zm25.778,14.77a6.41,6.41,0,0,0,5.1833-2.34,18.0243,18.0243,0,0,0,3.44-6.1462,36.437,36.437,0,0,0,1.7432-8.1648,45.3555,45.3555,0,0,0,.1375-8.3479,22.1935,22.1935,0,0,0-1.5137-6.743q-1.1934-2.8427-3.1191-3.4857-2.2943-.4578-4.2659,1.926a23.0476,23.0476,0,0,0-3.486,6.1929,46.5353,46.5353,0,0,0-3.0731,17.0168,19.2555,19.2555,0,0,0,1.2843,6.9261Q942.6947,14150.1492,945.1727,14150.4245Z"/><path class="cls-32" d="M982.4181,14145.1034a13.1067,13.1067,0,0,0,4.3574,2.34,22.742,22.742,0,0,0,5.2292,1.1009,19.9378,19.9378,0,0,0,4.9082-.1379,8.9618,8.9618,0,0,0,3.5316-1.1927,1.9421,1.9421,0,0,0,1.009-2.0639q-.2295-1.2387-2.614-2.89-2.57-1.1915-6.1928-2.4768a29.5883,29.5883,0,0,1-6.7423-3.3944,16.1259,16.1259,0,0,1-5-5.3664q-1.8807-3.2553-1.0549-8.3945a30.6139,30.6139,0,0,1,4.4494-9.6779,39.96,39.96,0,0,1,7.1558-7.89,45.29,45.29,0,0,1,8.8068-5.8253,42.1939,42.1939,0,0,1,9.4488-3.4857,33.4958,33.4958,0,0,1,9.0358-.9177,17.9663,17.9663,0,0,1,7.5228,1.8348q.5505,1.9269,1.009,4.4493a18.3448,18.3448,0,0,1,.1838,5.1833,14.7059,14.7059,0,0,1-1.56,5.1832,10.7867,10.7867,0,0,1-4.1284,4.2655,14.5651,14.5651,0,0,0-6.2381-2.6146,14.276,14.276,0,0,0-6.5591.321,10.4255,10.4255,0,0,0-5.0914,3.3026,8.6481,8.6481,0,0,0-1.8347,6.2381,10.65,10.65,0,0,0,3.8986,4.3581,40.4345,40.4345,0,0,0,5.734,3.0728q3.1173,1.3766,6.2381,2.89a21.1563,21.1563,0,0,1,5.4583,3.7614,13.4113,13.4113,0,0,1,3.44,5.6421,18.1654,18.1654,0,0,1,.1838,8.623,21.7048,21.7048,0,0,1-6.972,10.8713,30.3437,30.3437,0,0,1-10.7334,5.5042,47.6137,47.6137,0,0,1-12.43,1.7888q-6.4673.0925-12.2471-.2757a14.6865,14.6865,0,0,1-3.8527-6.1,27.841,27.841,0,0,1-1.5137-7.4309,20.336,20.336,0,0,1,.596-6.6963Q980.6756,14146.0221,982.4181,14145.1034Z"/><path class="cls-32" d="M1030.8554,14094.9232l37.7045-.0919a6.5414,6.5414,0,0,1,4.4034,2.9356,11.1684,11.1684,0,0,1,1.7888,5.3211,11.67,11.67,0,0,1-1.0549,5.7793,9.7755,9.7755,0,0,1-4.1284,4.4953l-16.7877.275v8.348l13.4852.1838a5.8941,5.8941,0,0,1,3.8526,3.3025,10.295,10.295,0,0,1,.688,4.8163,17.76,17.76,0,0,1-2.7978,7.8431l-15.228.642-.367,27.7969a4.5492,4.5492,0,0,1-2.0185,2.0179,15.5459,15.5459,0,0,1-3.6695,1.5138,19.2531,19.2531,0,0,1-4.4953.6879,15.4,15.4,0,0,1-4.4946-.4582,9.7777,9.7777,0,0,1-3.6695-1.7894,5.6977,5.6977,0,0,1-2.0186-3.44Z"/><path class="cls-32" d="M1077.733,14095.29l45.1347-.5508a5.7545,5.7545,0,0,1,1.56,3.1654,14.7439,14.7439,0,0,1,.2751,4.9535,13.11,13.11,0,0,1-1.5138,4.9081,5.685,5.685,0,0,1-3.7148,2.9356l-24.4024.367.9177,9.4488,15.595.4588a3.3817,3.3817,0,0,1,1.56,2.1558,14.48,14.48,0,0,1,.78,3.99,18.4289,18.4289,0,0,1-.23,4.3114,6.2481,6.2481,0,0,1-1.3759,3.2113l-17.1547.55.3669,14.2192,26.1453-.1832a12.0686,12.0686,0,0,1,2.293,5.1832,16.5036,16.5036,0,0,1,.0919,5.1833,16.9867,16.9867,0,0,1-1.33,4.5865,16.6439,16.6439,0,0,1-2.0645,3.4864l-42.933.8251Z"/><path class="cls-32" d="M1128.5558,14095.29l45.1347-.5508a5.7545,5.7545,0,0,1,1.56,3.1654,14.7439,14.7439,0,0,1,.2751,4.9535,13.11,13.11,0,0,1-1.5138,4.9081,5.685,5.685,0,0,1-3.7148,2.9356l-24.4024.367.9177,9.4488,15.595.4588a3.3817,3.3817,0,0,1,1.56,2.1558,14.48,14.48,0,0,1,.78,3.99,18.4289,18.4289,0,0,1-.23,4.3114,6.2481,6.2481,0,0,1-1.3759,3.2113l-17.1547.55.3669,14.2192,26.1453-.1832a12.0686,12.0686,0,0,1,2.293,5.1832,16.5036,16.5036,0,0,1,.0919,5.1833,16.9867,16.9867,0,0,1-1.33,4.5865,16.6439,16.6439,0,0,1-2.0645,3.4864l-42.933.8251Z"/><path class="cls-32" d="M1180.5713,14102.9961a50.4374,50.4374,0,0,1,9.4488-4.6784,58.34,58.34,0,0,1,11.0544-2.9816,47.4866,47.4866,0,0,1,11.3754-.5507,30.529,30.529,0,0,1,10.2746,2.4767,20.37,20.37,0,0,1,12.1553,16.3755,16.3914,16.3914,0,0,1-1.1468,6.1,30.6293,30.6293,0,0,1-2.9356,5.5962,43.1413,43.1413,0,0,1-4.0824,5.2291q-2.2942,2.5237-4.5865,4.9076l16.4208,24.1274a9.776,9.776,0,0,1-3.8067,5.2745,20.7161,20.7161,0,0,1-6.376,2.9815,39.2317,39.2317,0,0,1-7.4309,1.3306q-3.8529.322-6.88.4123l-13.4852-26.6954.1831,24.5856a6.4545,6.4545,0,0,1-4.4953,3.7614,18.4109,18.4109,0,0,1-7.1092.642,18.0629,18.0629,0,0,1-6.5592-1.8348q-2.8446-1.4661-2.8443-3.5776Zm19.3564,19.8153a10.8894,10.8894,0,0,0,3.8073.0919,17.7041,17.7041,0,0,0,4.6785-1.2387,14.6084,14.6084,0,0,0,4.2662-2.7065,8.4908,8.4908,0,0,0,2.5686-4.4947,3.75,3.75,0,0,0-1.2387-3.3485,8.2621,8.2621,0,0,0-3.7154-1.7435,15.7761,15.7761,0,0,0-5.1373-.1831,19.1278,19.1278,0,0,0-5.4123,1.4218Z"/></g><path class="cls-32" d="M687.9128,14112.05a22.8355,22.8355,0,0,1-1.1468-4.4493,31.7354,31.7354,0,0,1-.4129-5.1373,22.1716,22.1716,0,0,1,.55-5,12.1426,12.1426,0,0,1,1.6513-4.0364l49.9051-1.1008a4.8669,4.8669,0,0,1,2.11,2.3848,10.977,10.977,0,0,1,1.0089,4.5412,18.5188,18.5188,0,0,1-.8714,5.9172,19.0023,19.0023,0,0,1-3.44,6.3294h-14.77q0,2.8446.0919,6.972.09,4.1286.1834,8.8987.09,4.7717.2291,9.8157.1379,5.0464.23,9.8164t.1834,8.898q.0906,4.1287.0919,6.972a4.1482,4.1482,0,0,1-2.0641,2.8444,11.1744,11.1744,0,0,1-3.99,1.3759,19.7689,19.7689,0,0,1-4.8623.1378,31.0021,31.0021,0,0,1-4.77-.78,16.7066,16.7066,0,0,1-3.7611-1.3766,3.3856,3.3856,0,0,1-1.8347-1.7428l1.6513-51.8317Z"/><path class="cls-32" d="M744.9734,14100.3073a50.4222,50.4222,0,0,1,9.4491-4.6784,58.3283,58.3283,0,0,1,11.0541-2.9815,47.4865,47.4865,0,0,1,11.3754-.5508,30.5314,30.5314,0,0,1,10.2746,2.4767,20.37,20.37,0,0,1,12.1553,16.3756,16.3967,16.3967,0,0,1-1.1465,6.1,30.6666,30.6666,0,0,1-2.9356,5.5962,43.25,43.25,0,0,1-4.0824,5.2292q-2.2943,2.5236-4.5869,4.9075l16.4208,24.1274a9.773,9.773,0,0,1-3.807,5.2745,20.6984,20.6984,0,0,1-6.3756,2.9815,39.2288,39.2288,0,0,1-7.4309,1.3306q-3.8531.3221-6.88.4123l-13.4856-26.6954.1835,24.5856a6.4546,6.4546,0,0,1-4.495,3.7614,18.4138,18.4138,0,0,1-7.11.642,18.066,18.066,0,0,1-6.5591-1.8348q-2.8447-1.4661-2.8437-3.5776Zm19.3567,19.8153a10.8869,10.8869,0,0,0,3.807.0919,17.7041,17.7041,0,0,0,4.6785-1.2387,14.5992,14.5992,0,0,0,4.2658-2.7065,8.4891,8.4891,0,0,0,2.5687-4.4946,3.7485,3.7485,0,0,0-1.2384-3.3485,8.2611,8.2611,0,0,0-3.7154-1.7435,15.7732,15.7732,0,0,0-5.1373-.1832,19.1294,19.1294,0,0,0-5.4124,1.4219Z"/><path class="cls-32" d="M802.5847,14132.9658a50.5885,50.5885,0,0,1,2.66-16.7877,41.773,41.773,0,0,1,7.2475-13.119,32.6483,32.6483,0,0,1,10.7331-8.5311,29.2887,29.2887,0,0,1,13.1186-3.0274,19.9332,19.9332,0,0,1,11.1919,3.0727,24.1421,24.1421,0,0,1,7.66,8.2108,36.6984,36.6984,0,0,1,4.22,11.7883,52.9189,52.9189,0,0,1,.7339,13.5771,57.9764,57.9764,0,0,1-2.7062,13.715,44.5563,44.5563,0,0,1-6.1006,12.2465,34.5121,34.5121,0,0,1-9.4491,9.0366,26.8617,26.8617,0,0,1-12.7054,4.1283,21.6891,21.6891,0,0,1-10.7334-2.7065,26.9683,26.9683,0,0,1-8.3939-7.339,35.26,35.26,0,0,1-5.5042-10.8713A44.1558,44.1558,0,0,1,802.5847,14132.9658Zm25.778,14.77a6.41,6.41,0,0,0,5.1833-2.34,18.0228,18.0228,0,0,0,3.44-6.1462,36.4413,36.4413,0,0,0,1.7431-8.1648,45.3467,45.3467,0,0,0,.1375-8.3479,22.1892,22.1892,0,0,0-1.5137-6.7429q-1.1934-2.8428-3.1191-3.4857-2.2942-.4579-4.2658,1.926a23.0458,23.0458,0,0,0-3.4861,6.1928,46.5363,46.5363,0,0,0-3.0731,17.0169,19.2531,19.2531,0,0,0,1.2844,6.926Q825.8846,14147.46,828.3627,14147.7357Z"/><path class="cls-32" d="M863.6814,14101.2244a7.23,7.23,0,0,1,2.9816-3.5317,24.0515,24.0515,0,0,1,5.8252-2.7977,44.5368,44.5368,0,0,1,7.706-1.8347,62.04,62.04,0,0,1,8.6692-.6887,52.1994,52.1994,0,0,1,8.7608.6427,36.3894,36.3894,0,0,1,7.9354,2.1557,20.0843,20.0843,0,0,1,6.1922,3.8527,12.6973,12.6973,0,0,1,3.5779,5.78,19.168,19.168,0,0,1-.0459,8.44,24.2764,24.2764,0,0,1-4.3115,9.4028,33.7561,33.7561,0,0,1-9.2657,8.44,42.3,42.3,0,0,1-14.9989,5.55l1.4678,27.7962a8.696,8.696,0,0,1-4.9082,3.0275,24.9829,24.9829,0,0,1-13.4393-.1831q-2.9373-.9168-3.6695-2.4774Zm21.2831,16.7884a29.34,29.34,0,0,0,3.99-.367,25.4221,25.4221,0,0,0,4.9538-1.2387,14.0416,14.0416,0,0,0,4.22-2.34,4.6451,4.6451,0,0,0,1.7891-3.7607,3.3349,3.3349,0,0,0-2.9815-2.34,19.3962,19.3962,0,0,0-5.1832-.1378,60.6884,60.6884,0,0,0-7.0637,1.2846Z"/><path class="cls-32" d="M916.7059,14132.9658a50.5885,50.5885,0,0,1,2.66-16.7877,41.773,41.773,0,0,1,7.2475-13.119,32.6483,32.6483,0,0,1,10.7331-8.5311,29.2887,29.2887,0,0,1,13.1186-3.0274,19.9332,19.9332,0,0,1,11.1919,3.0727,24.1421,24.1421,0,0,1,7.66,8.2108,36.7056,36.7056,0,0,1,4.22,11.7883,52.9189,52.9189,0,0,1,.7339,13.5771,57.972,57.972,0,0,1-2.7065,13.715,44.5472,44.5472,0,0,1-6.1,12.2465,34.5121,34.5121,0,0,1-9.4491,9.0366,26.8617,26.8617,0,0,1-12.7054,4.1283,21.6891,21.6891,0,0,1-10.7334-2.7065,26.9683,26.9683,0,0,1-8.3939-7.339,35.26,35.26,0,0,1-5.5042-10.8713A44.1558,44.1558,0,0,1,916.7059,14132.9658Zm25.778,14.77a6.41,6.41,0,0,0,5.1833-2.34,18.0228,18.0228,0,0,0,3.44-6.1462,36.4413,36.4413,0,0,0,1.7431-8.1648,45.3559,45.3559,0,0,0,.1376-8.3479,22.192,22.192,0,0,0-1.5138-6.7429q-1.1934-2.8428-3.1191-3.4857-2.2942-.4579-4.2658,1.926a23.043,23.043,0,0,0-3.486,6.1928,46.5336,46.5336,0,0,0-3.0732,17.0169,19.2553,19.2553,0,0,0,1.2844,6.926Q940.0058,14147.46,942.4839,14147.7357Z"/><path class="cls-32" d="M979.7293,14142.4146a13.1067,13.1067,0,0,0,4.3574,2.34,22.742,22.742,0,0,0,5.2292,1.1009,19.9376,19.9376,0,0,0,4.9082-.1379,8.9623,8.9623,0,0,0,3.5317-1.1927,1.942,1.942,0,0,0,1.0089-2.0639q-.2293-1.2387-2.6139-2.89-2.57-1.1915-6.1929-2.4767a29.5907,29.5907,0,0,1-6.7423-3.3945,16.1259,16.1259,0,0,1-5-5.3664q-1.8807-3.2553-1.0549-8.3945a30.6161,30.6161,0,0,1,4.4494-9.6779,39.9662,39.9662,0,0,1,7.1558-7.89,45.29,45.29,0,0,1,8.8068-5.8253,42.1935,42.1935,0,0,1,9.4488-3.4856,33.4965,33.4965,0,0,1,9.0359-.9177,17.9667,17.9667,0,0,1,7.5228,1.8347q.55,1.9269,1.0089,4.4493a18.3448,18.3448,0,0,1,.1838,5.1833,14.7059,14.7059,0,0,1-1.56,5.1832,10.7873,10.7873,0,0,1-4.1283,4.2656,14.5648,14.5648,0,0,0-6.2382-2.6146,14.2746,14.2746,0,0,0-6.5591.321,10.4246,10.4246,0,0,0-5.0913,3.3025,8.6477,8.6477,0,0,0-1.8348,6.2381,10.65,10.65,0,0,0,3.8986,4.3581,40.4345,40.4345,0,0,0,5.734,3.0728q3.1175,1.3766,6.2381,2.89a21.1563,21.1563,0,0,1,5.4583,3.7614,13.41,13.41,0,0,1,3.44,5.6421,18.1661,18.1661,0,0,1,.1839,8.6229,21.7045,21.7045,0,0,1-6.9721,10.8713,30.342,30.342,0,0,1-10.7334,5.5042,47.6087,47.6087,0,0,1-12.43,1.7888q-6.4672.0926-12.2472-.2757a14.6856,14.6856,0,0,1-3.8526-6.1,27.8381,27.8381,0,0,1-1.5138-7.4309,20.3391,20.3391,0,0,1,.596-6.6964Q977.9868,14143.3333,979.7293,14142.4146Z"/><path class="cls-32" d="M1028.1666,14092.2345l37.7045-.0919a6.5412,6.5412,0,0,1,4.4034,2.9355,11.1688,11.1688,0,0,1,1.7888,5.3211,11.67,11.67,0,0,1-1.0549,5.7793,9.7749,9.7749,0,0,1-4.1283,4.4953l-16.7878.2751v8.3479l13.4852.1838a5.8943,5.8943,0,0,1,3.8527,3.3025,10.2963,10.2963,0,0,1,.6879,4.8163,17.7614,17.7614,0,0,1-2.7977,7.8432l-15.2281.642-.367,27.7969a4.549,4.549,0,0,1-2.0185,2.0178,15.5459,15.5459,0,0,1-3.6695,1.5138,19.2531,19.2531,0,0,1-4.4953.6879,15.4,15.4,0,0,1-4.4946-.4582,9.7777,9.7777,0,0,1-3.6695-1.7894,5.6979,5.6979,0,0,1-2.0186-3.44Z"/><path class="cls-32" d="M1075.0442,14092.6014l45.1347-.5507a5.7537,5.7537,0,0,1,1.56,3.1653,14.7439,14.7439,0,0,1,.2751,4.9535,13.1107,13.1107,0,0,1-1.5138,4.9082,5.6856,5.6856,0,0,1-3.7147,2.9356l-24.4025.3669.9177,9.4488,15.595.4588a3.3814,3.3814,0,0,1,1.56,2.1558,14.4758,14.4758,0,0,1,.78,3.99,18.4355,18.4355,0,0,1-.23,4.3115,6.2477,6.2477,0,0,1-1.3759,3.2113l-17.1547.55.367,14.2191,26.1452-.1832a12.0685,12.0685,0,0,1,2.293,5.1833,16.5029,16.5029,0,0,1,.0919,5.1832,16.9863,16.9863,0,0,1-1.33,4.5866,16.6456,16.6456,0,0,1-2.0645,3.4863l-42.933.8251Z"/><path class="cls-32" d="M1125.867,14092.6014l45.1347-.5507a5.7537,5.7537,0,0,1,1.56,3.1653,14.7439,14.7439,0,0,1,.2751,4.9535,13.1107,13.1107,0,0,1-1.5138,4.9082,5.6856,5.6856,0,0,1-3.7148,2.9356l-24.4024.3669.9177,9.4488,15.595.4588a3.3814,3.3814,0,0,1,1.56,2.1558,14.48,14.48,0,0,1,.78,3.99,18.4355,18.4355,0,0,1-.23,4.3115,6.2477,6.2477,0,0,1-1.3759,3.2113l-17.1547.55.3669,14.2191,26.1453-.1832a12.0685,12.0685,0,0,1,2.293,5.1833,16.5029,16.5029,0,0,1,.0919,5.1832,16.9863,16.9863,0,0,1-1.33,4.5866,16.6456,16.6456,0,0,1-2.0645,3.4863l-42.933.8251Z"/><path class="cls-32" d="M1177.8825,14100.3073a50.44,50.44,0,0,1,9.4488-4.6784,58.3393,58.3393,0,0,1,11.0544-2.9815,47.4876,47.4876,0,0,1,11.3755-.5508,30.529,30.529,0,0,1,10.2745,2.4767,20.369,20.369,0,0,1,12.1553,16.3756,16.3909,16.3909,0,0,1-1.1468,6.1,30.6231,30.6231,0,0,1-2.9356,5.5962,43.15,43.15,0,0,1-4.0824,5.2292q-2.2943,2.5236-4.5865,4.9075l16.4208,24.1274a9.776,9.776,0,0,1-3.8067,5.2745,20.71,20.71,0,0,1-6.376,2.9815,39.2317,39.2317,0,0,1-7.4309,1.3306q-3.8529.3221-6.88.4123l-13.4852-26.6954.1831,24.5856a6.4545,6.4545,0,0,1-4.4953,3.7614,18.4108,18.4108,0,0,1-7.1092.642,18.06,18.06,0,0,1-6.5591-1.8348q-2.8448-1.4661-2.8444-3.5776Zm19.3564,19.8153a10.89,10.89,0,0,0,3.8074.0919,17.7034,17.7034,0,0,0,4.6784-1.2387,14.6051,14.6051,0,0,0,4.2662-2.7065,8.4917,8.4917,0,0,0,2.5687-4.4946,3.75,3.75,0,0,0-1.2387-3.3485,8.263,8.263,0,0,0-3.7155-1.7435,15.7731,15.7731,0,0,0-5.1373-.1832,19.1288,19.1288,0,0,0-5.4123,1.4219Z"/><polygon class="cls-33" points="1416.265 15066.472 1494.212 15125.264 1583.697 15235.686 1598.751 15326.465 1479.212 15276.911 1474.115 15209.184 1433.34 15162.07 1416.265 15066.472"/><polygon class="cls-34" points="1416.265 15066.472 1494.212 15125.264 1583.697 15235.686 1598.751 15326.465 1479.212 15276.911 1474.115 15209.184 1433.34 15162.07 1416.265 15066.472"/><ellipse class="cls-35" cx="-307.5788" cy="16353.7643" rx="1138.1593" ry="401.1371"/><ellipse class="cls-36" cx="2244.1217" cy="16353.7643" rx="1138.1593" ry="401.1371"/><ellipse class="cls-37" cx="954.1543" cy="16423.0333" rx="1603.506" ry="422.1874"/><ellipse class="cls-38" cx="510.6424" cy="16453.9214" rx="243.9759" ry="1672.6091" transform="translate(-15932.9082 15678.0798) rotate(-85.5211)"/></svg>