<svg id="Layer_1" data-name="Layer 1" xmlns="http://www.w3.org/2000/svg" xmlns:xlink="http://www.w3.org/1999/xlink" viewBox="0 0 384 243.19"><defs><style>.cls-1{fill:#e1e1e1;}.cls-2{fill:url(#linear-gradient);}.cls-3{fill:#cfcfcf;}.cls-4{fill:#f3f3f3;}.cls-5{fill:url(#linear-gradient-2);}.cls-6{fill:url(#linear-gradient-3);}.cls-7{fill:url(#linear-gradient-4);}.cls-8{fill:url(#linear-gradient-5);}.cls-9{fill:url(#linear-gradient-6);}.cls-10{fill:url(#linear-gradient-7);}.cls-11{fill:url(#linear-gradient-8);}.cls-12,.cls-20{opacity:0.75;}.cls-12{fill:url(#linear-gradient-9);}.cls-13{opacity:0.15;}.cls-14{fill:#fff;}.cls-15{fill:url(#radial-gradient);}.cls-16{fill:url(#linear-gradient-10);}.cls-17{fill:url(#linear-gradient-11);}.cls-18{fill:url(#linear-gradient-12);}.cls-19{fill:url(#linear-gradient-13);}.cls-20{fill:url(#linear-gradient-14);}.cls-21{fill:url(#radial-gradient-2);}.cls-22{fill:url(#linear-gradient-15);}.cls-23{fill:url(#linear-gradient-16);}.cls-24{fill:url(#linear-gradient-17);}.cls-25{fill:url(#linear-gradient-18);}.cls-26{fill:url(#linear-gradient-19);}.cls-27{fill:url(#linear-gradient-20);}.cls-28{fill:url(#linear-gradient-21);}.cls-29{fill:url(#linear-gradient-22);}.cls-30{fill:url(#linear-gradient-23);}.cls-31{fill:url(#linear-gradient-24);}.cls-32{fill:url(#linear-gradient-25);}.cls-33{fill:url(#linear-gradient-26);}.cls-34{fill:url(#linear-gradient-27);}.cls-35{fill:url(#radial-gradient-3);}.cls-36{fill:url(#radial-gradient-4);}.cls-37{fill:#353638;}.cls-38{opacity:0.1;}.cls-39{opacity:0.25;}.cls-40,.cls-42,.cls-44,.cls-45,.cls-47{fill:none;stroke-miterlimit:10;}.cls-40{stroke:#dd5f64;stroke-width:1.69px;}.cls-41{fill:url(#radial-gradient-5);}.cls-42{stroke:#d38cbd;stroke-width:1.56px;}.cls-43{fill:url(#radial-gradient-6);}.cls-44{stroke:#353638;stroke-width:2.22px;}.cls-45{stroke:#6c8bc7;stroke-width:1.74px;}.cls-46{fill:url(#radial-gradient-7);}.cls-47{stroke:#41cf95;stroke-width:1.79px;}</style><linearGradient id="linear-gradient" x1="0.13" y1="217.1" x2="80.44" y2="217.1" gradientUnits="userSpaceOnUse"><stop offset="0.01" stop-color="#4d5b8a"/><stop offset="0.13" stop-color="#4c5881"/><stop offset="0.7" stop-color="#454a57"/><stop offset="1" stop-color="#434447"/></linearGradient><linearGradient id="linear-gradient-2" x1="50.08" y1="7.61" x2="99.54" y2="7.61" xlink:href="#linear-gradient"/><linearGradient id="linear-gradient-3" x1="50.08" y1="3.55" x2="99.54" y2="3.55" xlink:href="#linear-gradient"/><linearGradient id="linear-gradient-4" x1="60.76" y1="54.26" x2="82.68" y2="54.26" xlink:href="#linear-gradient"/><linearGradient id="linear-gradient-5" x1="60.76" y1="90.88" x2="82.68" y2="90.88" xlink:href="#linear-gradient"/><linearGradient id="linear-gradient-6" x1="75.46" y1="72.57" x2="104.6" y2="72.57" xlink:href="#linear-gradient"/><linearGradient id="linear-gradient-7" x1="38.84" y1="72.57" x2="67.98" y2="72.57" xlink:href="#linear-gradient"/><linearGradient id="linear-gradient-8" x1="106.85" y1="33.79" x2="119.78" y2="33.79" xlink:href="#linear-gradient"/><linearGradient id="linear-gradient-9" x1="105.73" y1="125.68" x2="154.06" y2="125.68" xlink:href="#linear-gradient"/><radialGradient id="radial-gradient" cx="129.89" cy="125.68" r="15.74" gradientUnits="userSpaceOnUse"><stop offset="0.01" stop-color="#4d5b8a"/><stop offset="0.28" stop-color="#4c5a87"/><stop offset="0.51" stop-color="#4b567c"/><stop offset="0.72" stop-color="#48506a"/><stop offset="0.93" stop-color="#454852"/><stop offset="1" stop-color="#434447"/></radialGradient><linearGradient id="linear-gradient-10" x1="303.56" y1="217.1" x2="383.87" y2="217.1" xlink:href="#linear-gradient"/><linearGradient id="linear-gradient-11" x1="284.46" y1="7.61" x2="333.92" y2="7.61" xlink:href="#linear-gradient"/><linearGradient id="linear-gradient-12" x1="284.46" y1="3.55" x2="333.92" y2="3.55" xlink:href="#linear-gradient"/><linearGradient id="linear-gradient-13" x1="264.22" y1="33.79" x2="277.15" y2="33.79" gradientTransform="translate(541.37 67.58) rotate(180)" xlink:href="#linear-gradient"/><linearGradient id="linear-gradient-14" x1="229.94" y1="125.68" x2="278.27" y2="125.68" xlink:href="#linear-gradient"/><radialGradient id="radial-gradient-2" cx="254.11" cy="125.68" r="15.74" xlink:href="#radial-gradient"/><linearGradient id="linear-gradient-15" x1="190.88" y1="13.57" x2="190.88" y2="87.2" xlink:href="#linear-gradient"/><linearGradient id="linear-gradient-16" x1="175.42" y1="95.9" x2="178.79" y2="95.9" xlink:href="#linear-gradient"/><linearGradient id="linear-gradient-17" x1="179.35" y1="100.95" x2="182.73" y2="100.95" xlink:href="#linear-gradient"/><linearGradient id="linear-gradient-18" x1="182.73" y1="106.01" x2="186.1" y2="106.01" xlink:href="#linear-gradient"/><linearGradient id="linear-gradient-19" x1="190.03" y1="106.01" x2="193.41" y2="106.01" xlink:href="#linear-gradient"/><linearGradient id="linear-gradient-20" x1="196.78" y1="106.01" x2="200.15" y2="106.01" xlink:href="#linear-gradient"/><linearGradient id="linear-gradient-21" x1="186.66" y1="100.95" x2="190.03" y2="100.95" xlink:href="#linear-gradient"/><linearGradient id="linear-gradient-22" x1="193.41" y1="100.95" x2="196.78" y2="100.95" xlink:href="#linear-gradient"/><linearGradient id="linear-gradient-23" x1="200.15" y1="100.95" x2="203.52" y2="100.95" xlink:href="#linear-gradient"/><linearGradient id="linear-gradient-24" x1="182.73" y1="95.9" x2="186.1" y2="95.9" xlink:href="#linear-gradient"/><linearGradient id="linear-gradient-25" x1="190.03" y1="95.9" x2="193.41" y2="95.9" xlink:href="#linear-gradient"/><linearGradient id="linear-gradient-26" x1="196.78" y1="95.9" x2="200.15" y2="95.9" xlink:href="#linear-gradient"/><linearGradient id="linear-gradient-27" x1="204.08" y1="95.9" x2="207.46" y2="95.9" xlink:href="#linear-gradient"/><radialGradient id="radial-gradient-3" cx="191.44" cy="127.65" r="10.68" xlink:href="#radial-gradient"/><radialGradient id="radial-gradient-4" cx="337.15" cy="73.02" r="12.5" xlink:href="#radial-gradient"/><radialGradient id="radial-gradient-5" cx="285.86" cy="72.86" r="12.5" xlink:href="#radial-gradient"/><radialGradient id="radial-gradient-6" cx="311.17" cy="97.87" r="12.5" xlink:href="#radial-gradient"/><radialGradient id="radial-gradient-7" cx="311.16" cy="47.2" r="12.95" xlink:href="#radial-gradient"/></defs><title>begin-controller</title><path class="cls-1" d="M191.72,13.28l86,1.12s.56-1.69,5.62-3.93c32.88-3.66,54,1.68,54,1.68s6.18,12.93,12.93,20.8,32.59,98.92,33.72,146.13S371,240.34,340.66,242s-54-73.07-56.2-84.31c-8.43-5.06-92.74-3.37-92.74-3.37h.56s-84.31-1.69-92.74,3.37c-1.18,5.91-8.25,29.34-19.1,50-9.81,18.68-22.69,35.1-37.1,34.3C15.72,240.49,1.59,228.72.13,191q-.22-5.58-.07-11.93C1.19,131.87,27,40.82,33.78,33s12.93-20.8,12.93-20.8,21.08-5.34,54-1.68c5.06,2.24,5.62,3.93,5.62,3.93l86-1.12Z"/><path class="cls-2" d="M80.44,207.73c-4.78,13.78-20.8,36.55-37.1,35.42C15.74,241.25.34,229.94.13,191,3.72,206.9,49.8,228.82,80.44,207.73Z"/><ellipse class="cls-3" cx="72.85" cy="74.54" rx="44.96" ry="44.68"/><ellipse class="cls-3" cx="313.4" cy="74.54" rx="44.96" ry="44.68"/><ellipse class="cls-4" cx="71.72" cy="72.85" rx="44.96" ry="44.68"/><path class="cls-5" d="M50.28,11.54l-.2-4.45S65.82,3.16,81,3.72,99.54,5.41,99.54,5.41l-.19,5.12A197.84,197.84,0,0,0,50.28,11.54Z"/><path class="cls-6" d="M50.08,7.09S75.38.91,99.54,5.41C96.73,1.47,73.13-5.27,50.08,7.09Z"/><path class="cls-7" d="M65.73,39.69H78.09a4.62,4.62,0,0,1,4.59,4.65v12a5.07,5.07,0,0,1-1.36,3.46l-7.78,8.28a2.2,2.2,0,0,1-3.17.05l-8.15-8.24a5,5,0,0,1-1.45-3.72l.37-12A4.62,4.62,0,0,1,65.73,39.69Z"/><path class="cls-8" d="M65.73,105.45H78.09a4.62,4.62,0,0,0,4.59-4.64V88.75a5.07,5.07,0,0,0-1.36-3.46L73.54,77a2.2,2.2,0,0,0-3.17,0l-8.15,8.24a5,5,0,0,0-1.45,3.71l.37,12A4.62,4.62,0,0,0,65.73,105.45Z"/><path class="cls-9" d="M104.6,66.58V78.94A4.62,4.62,0,0,1,100,83.53H87.9a5,5,0,0,1-3.46-1.37l-8.28-7.77a2.2,2.2,0,0,1,0-3.17l8.24-8.15a5.07,5.07,0,0,1,3.71-1.46l12,.38A4.61,4.61,0,0,1,104.6,66.58Z"/><path class="cls-10" d="M38.84,66.58V78.94a4.62,4.62,0,0,0,4.65,4.59h12A5.08,5.08,0,0,0,59,82.16l8.27-7.77a2.19,2.19,0,0,0,0-3.17l-8.24-8.15a5.08,5.08,0,0,0-3.71-1.46l-12,.38A4.62,4.62,0,0,0,38.84,66.58Z"/><rect class="cls-11" x="106.85" y="22.27" width="12.93" height="23.04" rx="5.61"/><ellipse class="cls-3" cx="130.46" cy="128.21" rx="37.66" ry="37.94"/><ellipse class="cls-4" cx="130.74" cy="125.12" rx="35.69" ry="35.41"/><circle class="cls-12" cx="129.89" cy="125.68" r="24.17"/><g class="cls-13"><path class="cls-14" d="M122,142.55a54.32,54.32,0,0,0,6.13.77l3.05.15c1,.05,2.07.06,3.18.2a9.73,9.73,0,0,1-3.08,1.11A12.34,12.34,0,0,1,128,145a11.45,11.45,0,0,1-3.22-.7A7.14,7.14,0,0,1,122,142.55Z"/></g><circle class="cls-15" cx="129.89" cy="125.68" r="15.74"/><g class="cls-13"><path class="cls-14" d="M117.53,109.39a10.49,10.49,0,0,1,3.75-3.11,16.27,16.27,0,0,1,4.67-1.56,18,18,0,0,1,4.91,0,18.94,18.94,0,0,1,2.38.49,19.25,19.25,0,0,1,2.27.85c-.82,0-1.6,0-2.39,0s-1.56,0-2.33,0c-.39,0-.77,0-1.16,0s-.76.06-1.14.09c-.77,0-1.51.17-2.27.27a27.2,27.2,0,0,0-4.42,1.1A25.13,25.13,0,0,0,117.53,109.39Z"/></g><path class="cls-16" d="M303.56,207.73c4.78,13.78,19.68,36.55,37.1,35.42,27.61-1.78,43-13.21,43.21-52.14C380.28,206.9,334.2,228.82,303.56,207.73Z"/><ellipse class="cls-3" cx="313.4" cy="74.54" rx="44.96" ry="44.68"/><ellipse class="cls-4" cx="312.28" cy="72.85" rx="44.96" ry="44.68"/><path class="cls-17" d="M333.72,11.54l.2-4.45S318.18,3.16,303,3.72s-18.54,1.69-18.54,1.69l.19,5.12A197.84,197.84,0,0,1,333.72,11.54Z"/><path class="cls-18" d="M333.92,7.09S308.62.91,284.46,5.41C287.27,1.47,310.87-5.27,333.92,7.09Z"/><rect class="cls-19" x="264.22" y="22.27" width="12.93" height="23.04" rx="5.61" transform="translate(541.37 67.58) rotate(-180)"/><ellipse class="cls-3" cx="253.54" cy="128.21" rx="37.66" ry="37.94"/><ellipse class="cls-4" cx="253.26" cy="125.12" rx="35.69" ry="35.41"/><circle class="cls-20" cx="254.11" cy="125.68" r="24.17"/><g class="cls-13"><path class="cls-14" d="M262,142.55a7.14,7.14,0,0,1-2.79,1.75,11.45,11.45,0,0,1-3.22.7,12.34,12.34,0,0,1-3.27-.22,9.73,9.73,0,0,1-3.08-1.11c1.11-.14,2.15-.15,3.18-.2l3.05-.15A54.32,54.32,0,0,0,262,142.55Z"/></g><circle class="cls-21" cx="254.11" cy="125.68" r="15.74"/><g class="cls-13"><path class="cls-14" d="M266.47,109.39a25.13,25.13,0,0,0-4.27-1.9,27.2,27.2,0,0,0-4.42-1.1c-.76-.1-1.5-.24-2.27-.27-.38,0-.76-.08-1.14-.09s-.77,0-1.16,0c-.77,0-1.54,0-2.33,0s-1.57.07-2.39,0a19.25,19.25,0,0,1,2.27-.85,18.94,18.94,0,0,1,2.38-.49,18,18,0,0,1,4.91,0,16.27,16.27,0,0,1,4.67,1.56A10.49,10.49,0,0,1,266.47,109.39Z"/></g><rect class="cls-22" x="125.96" y="12.15" width="129.83" height="73.63" rx="3.93"/><circle class="cls-23" cx="177.11" cy="95.9" r="1.69"/><circle class="cls-24" cx="181.04" cy="100.95" r="1.69"/><circle class="cls-25" cx="184.41" cy="106.01" r="1.69"/><circle class="cls-26" cx="191.72" cy="106.01" r="1.69"/><circle class="cls-27" cx="198.46" cy="106.01" r="1.69"/><circle class="cls-28" cx="188.35" cy="100.95" r="1.69"/><circle class="cls-29" cx="195.09" cy="100.95" r="1.69"/><circle class="cls-30" cx="201.84" cy="100.95" r="1.69"/><circle class="cls-31" cx="184.41" cy="95.9" r="1.69"/><circle class="cls-32" cx="191.72" cy="95.9" r="1.69"/><circle class="cls-33" cx="198.46" cy="95.9" r="1.69"/><circle class="cls-34" cx="205.77" cy="95.9" r="1.69"/><circle class="cls-35" cx="191.44" cy="127.65" r="10.68"/><circle class="cls-36" cx="337.15" cy="73.02" r="12.5"/><path class="cls-37" d="M337.15,60.51A12.51,12.51,0,1,1,324.65,73a12.5,12.5,0,0,1,12.5-12.51m0-.28A12.79,12.79,0,1,0,349.94,73a12.8,12.8,0,0,0-12.79-12.79Z"/><g class="cls-38"><path class="cls-14" d="M324.82,72.78a10.71,10.71,0,0,1,.78-4.66,12,12,0,0,1,2.7-4,12.47,12.47,0,0,1,17.59,0,12.18,12.18,0,0,1,2.7,4,10.71,10.71,0,0,1,.78,4.66,11.83,11.83,0,0,0-4-8.06,12.31,12.31,0,0,0-16.55,0A11.79,11.79,0,0,0,324.82,72.78Z"/></g><g class="cls-39"><path class="cls-37" d="M337.12,66.39a6.66,6.66,0,1,1-6.66,6.66,6.66,6.66,0,0,1,6.66-6.66m0-1.08a7.74,7.74,0,1,0,7.74,7.74,7.74,7.74,0,0,0-7.74-7.74Z"/></g><circle class="cls-40" cx="337.12" cy="73.05" r="6.66"/><circle class="cls-41" cx="285.86" cy="72.86" r="12.5"/><path class="cls-37" d="M285.86,60.35a12.51,12.51,0,1,1-12.51,12.51,12.51,12.51,0,0,1,12.51-12.51m0-.28a12.79,12.79,0,1,0,12.78,12.79,12.8,12.8,0,0,0-12.78-12.79Z"/><g class="cls-38"><path class="cls-14" d="M273.52,72.63A10.73,10.73,0,0,1,274.3,68a12.44,12.44,0,0,1,2.7-4,12.47,12.47,0,0,1,17.59,0,12,12,0,0,1,2.7,4,10.73,10.73,0,0,1,.78,4.67,11.75,11.75,0,0,0-4-8.07,12.3,12.3,0,0,0-16.55,0A11.83,11.83,0,0,0,273.52,72.63Z"/></g><g class="cls-39"><path class="cls-37" d="M291.88,66.89v12H279.83v-12h12.05M293,65.81H278.75V80H293V65.81Z"/></g><rect class="cls-42" x="279.83" y="66.89" width="12.05" height="12.05"/><circle class="cls-43" cx="311.17" cy="97.87" r="12.5"/><path class="cls-37" d="M311.17,85.37a12.51,12.51,0,1,1-12.5,12.5,12.51,12.51,0,0,1,12.5-12.5m0-.28A12.79,12.79,0,1,0,324,97.87a12.8,12.8,0,0,0-12.79-12.78Z"/><g class="cls-38"><path class="cls-14" d="M298.84,97.64a10.71,10.71,0,0,1,.78-4.66,12.18,12.18,0,0,1,2.7-4,12.47,12.47,0,0,1,17.59,0,12,12,0,0,1,2.7,4,10.71,10.71,0,0,1,.78,4.66,11.83,11.83,0,0,0-4-8.07,12.33,12.33,0,0,0-16.55,0A11.83,11.83,0,0,0,298.84,97.64Z"/></g><g class="cls-39"><line class="cls-44" x1="304.37" y1="104.74" x2="317.98" y2="91.13"/><line class="cls-44" x1="304.37" y1="91.13" x2="317.98" y2="104.74"/></g><line class="cls-45" x1="304.37" y1="104.74" x2="317.98" y2="91.13"/><line class="cls-45" x1="304.37" y1="91.13" x2="317.98" y2="104.74"/><circle class="cls-46" cx="311.16" cy="47.2" r="12.95"/><path class="cls-37" d="M311.16,34.24a13,13,0,1,1-13,13,13,13,0,0,1,13-13m0-.29A13.25,13.25,0,1,0,324.41,47.2,13.26,13.26,0,0,0,311.16,34Z"/><g class="cls-38"><path class="cls-14" d="M298.38,47a11.16,11.16,0,0,1,.81-4.83A12.67,12.67,0,0,1,302,38a12.92,12.92,0,0,1,18.22,0,12.67,12.67,0,0,1,2.8,4.11,11,11,0,0,1,.8,4.83,12.19,12.19,0,0,0-4.14-8.36,12.76,12.76,0,0,0-17.15,0A12.24,12.24,0,0,0,298.38,47Z"/></g><g class="cls-39"><path class="cls-37" d="M311.16,40.42l7,12.06H304.19l7-12.06m0-2.24-1,1.68-7,12.06-1,1.68h17.8l-1-1.68-7-12.06-1-1.68Z"/></g><polygon class="cls-47" points="311.16 40.42 304.19 52.48 318.12 52.48 311.16 40.42"/><path class="cls-4" d="M189.69,132.07V121.18l2.55.63c2.73.67,3.64,1.73,3.64,4,0,3.13-2.77,1.93-2.77,1.93l0-4a.62.62,0,0,0-.61-.68h0a.29.29,0,0,0-.31.28v9.54Z"/><path class="cls-4" d="M189.22,127.76v1.46s-3,.86-3,1.26,1.8.33,3-.33v1.33s-4.45.33-5.11-.93S189.22,127.76,189.22,127.76Z"/><path class="cls-4" d="M192.61,128.89v1.52a19,19,0,0,1,3.45-1.13c.74,0,1.53.27.27.74s-3.65,1.26-3.65,1.26v1.46s6-1.79,6.44-2.66S197.19,127.49,192.61,128.89Z"/></svg>