<svg id="Layer_1" data-name="Layer 1" xmlns="http://www.w3.org/2000/svg" xmlns:xlink="http://www.w3.org/1999/xlink" viewBox="0 0 134.2 188.65"><defs><style>.cls-1{fill:none;stroke-miterlimit:10;stroke-width:4.19px;stroke:url(#linear-gradient);}.cls-2{fill:#e1e1e1;}.cls-3{fill:#fff;}.cls-4{fill:url(#linear-gradient-2);}.cls-5{fill:url(#linear-gradient-3);}.cls-6{fill:url(#linear-gradient-4);}.cls-7{fill:url(#linear-gradient-5);}.cls-8{fill:url(#linear-gradient-6);}.cls-9{fill:url(#linear-gradient-7);}.cls-10{fill:url(#linear-gradient-8);}.cls-11{fill:url(#linear-gradient-9);}.cls-12{fill:url(#linear-gradient-10);}.cls-13{fill:url(#linear-gradient-11);}.cls-14{fill:url(#linear-gradient-12);}.cls-15{fill:url(#linear-gradient-13);}.cls-16{fill:url(#linear-gradient-14);}.cls-17{fill:url(#linear-gradient-15);}.cls-18{fill:url(#linear-gradient-16);}.cls-19{fill:url(#linear-gradient-17);}.cls-20{fill:url(#linear-gradient-18);}</style><linearGradient id="linear-gradient" x1="-105.2" y1="-5.47" x2="-37.5" y2="-5.47" gradientTransform="translate(144.05 47) rotate(6.21)" gradientUnits="userSpaceOnUse"><stop offset="0" stop-color="#f35099"/><stop offset="1" stop-color="#f6b99a"/></linearGradient><linearGradient id="linear-gradient-2" x1="-72.68" y1="46.68" x2="-69.32" y2="46.68" gradientTransform="translate(139.42 39.05)" gradientUnits="userSpaceOnUse"><stop offset="0" stop-color="#0a2c5b"/><stop offset="0.29" stop-color="#1d3463"/><stop offset="0.72" stop-color="#323e6d"/><stop offset="1" stop-color="#3a4271"/></linearGradient><linearGradient id="linear-gradient-3" x1="-958.21" y1="1720.96" x2="-954.86" y2="1720.96" gradientTransform="translate(1055.8 -1612.64)" xlink:href="#linear-gradient-2"/><linearGradient id="linear-gradient-4" x1="48.99" y1="3324.99" x2="52.34" y2="3324.99" gradientTransform="translate(44.47 -3178.67)" xlink:href="#linear-gradient-2"/><linearGradient id="linear-gradient-5" x1="1941.72" y1="3254.75" x2="1945.07" y2="3254.75" gradientTransform="translate(-1883.24 -3093)" xlink:href="#linear-gradient-2"/><linearGradient id="linear-gradient-6" x1="2827.25" y1="1580.47" x2="2830.6" y2="1580.47" gradientTransform="translate(-2799.62 -1441.31)" xlink:href="#linear-gradient-2"/><linearGradient id="linear-gradient-7" x1="1820.05" y1="-23.56" x2="1823.41" y2="-23.56" gradientTransform="translate(-1788.29 124.71)" xlink:href="#linear-gradient-2"/><linearGradient id="linear-gradient-8" x1="-738.16" y1="766.04" x2="-735.12" y2="766.04" gradientTransform="translate(821.36 -670.3)" xlink:href="#linear-gradient-2"/><linearGradient id="linear-gradient-9" x1="-670.98" y1="2658.88" x2="-667.94" y2="2658.88" gradientTransform="translate(768.21 -2531.45)" xlink:href="#linear-gradient-2"/><linearGradient id="linear-gradient-10" x1="1001.85" y1="3547.13" x2="1004.89" y2="3547.13" gradientTransform="translate(-925.05 -3391.7)" xlink:href="#linear-gradient-2"/><linearGradient id="linear-gradient-11" x1="2607.51" y1="2542.53" x2="2610.55" y2="2542.53" gradientTransform="translate(-2565.17 -2390.79)" xlink:href="#linear-gradient-2"/><linearGradient id="linear-gradient-12" x1="2540.34" y1="649.69" x2="2543.38" y2="649.69" gradientTransform="translate(-2512.03 -529.64)" xlink:href="#linear-gradient-2"/><linearGradient id="linear-gradient-13" x1="867.5" y1="-238.55" x2="870.54" y2="-238.55" gradientTransform="translate(-818.77 330.6)" xlink:href="#linear-gradient-2"/><linearGradient id="linear-gradient-14" x1="-27.62" y1="27.84" x2="-6.51" y2="27.84" gradientTransform="translate(116.46 41.08) rotate(-45)" xlink:href="#linear-gradient-2"/><linearGradient id="linear-gradient-15" x1="-135.21" y1="85.61" x2="-6.79" y2="85.61" gradientTransform="translate(144.05 47) rotate(6.21)" xlink:href="#linear-gradient-2"/><linearGradient id="linear-gradient-16" x1="-91.24" y1="3.61" x2="-51.46" y2="3.61" gradientTransform="translate(144.08 39.26)" xlink:href="#linear-gradient-2"/><linearGradient id="linear-gradient-17" x1="60.6" y1="115.62" x2="69.62" y2="116.6" gradientTransform="matrix(1, 0, 0, 1, 0, 0)" xlink:href="#linear-gradient"/><linearGradient id="linear-gradient-18" x1="-79.37" y1="84.91" x2="-62.62" y2="84.91" gradientTransform="translate(144.05 47) rotate(6.21)" xlink:href="#linear-gradient-2"/></defs><title>test</title><circle class="cls-1" cx="73.71" cy="33.85" r="31.75"/><circle class="cls-2" cx="64.29" cy="123.74" r="53.74"/><circle class="cls-3" cx="61.66" cy="122.05" r="49.55"/><rect class="cls-4" x="66.74" y="80.7" width="3.35" height="10.06" rx="1.68" transform="translate(9.67 -6.89) rotate(6.21)"/><rect class="cls-5" x="97.59" y="103.28" width="3.35" height="10.06" rx="1.68" transform="translate(158.32 -26.22) rotate(66.21)"/><rect class="cls-6" x="93.46" y="141.29" width="3.35" height="10.06" rx="1.68" transform="translate(269.4 155.98) rotate(126.21)"/><rect class="cls-7" x="58.48" y="156.71" width="3.35" height="10.06" rx="1.68" transform="translate(102.48 329.04) rotate(-173.79)"/><rect class="cls-8" x="27.63" y="134.13" width="3.35" height="10.06" rx="1.68" transform="translate(-86.2 222.13) rotate(-113.79)"/><rect class="cls-9" x="31.76" y="96.13" width="3.35" height="10.06" rx="1.68" transform="translate(-67.94 68.39) rotate(-53.79)"/><rect class="cls-10" x="83.2" y="91.18" width="3.04" height="9.12" rx="1.52" transform="translate(72.7 -31.53) rotate(36.11)"/><rect class="cls-11" x="97.23" y="122.87" width="3.04" height="9.12" rx="1.52" transform="matrix(-0.11, 0.99, -0.99, -0.11, 235.97, 42.81)"/><rect class="cls-12" x="76.8" y="150.87" width="3.04" height="9.12" rx="1.52" transform="translate(212.88 265.83) rotate(156.11)"/><rect class="cls-13" x="42.34" y="147.18" width="3.04" height="9.12" rx="1.52" transform="translate(-10.13 300.17) rotate(-143.89)"/><rect class="cls-14" x="28.31" y="115.49" width="3.04" height="9.12" rx="1.52" transform="translate(-92.72 136.92) rotate(-83.89)"/><rect class="cls-15" x="48.73" y="87.49" width="3.04" height="9.12" rx="1.52" transform="translate(-32.97 28.23) rotate(-23.89)"/><rect class="cls-2" x="62.5" y="50.16" width="18.15" height="13.26" transform="translate(6.56 -7.4) rotate(6.21)"/><rect class="cls-2" x="108.75" y="73.1" width="9.07" height="16.05" transform="translate(105.54 -58) rotate(51.21)"/><rect class="cls-16" x="112.56" y="66.55" width="23.03" height="12.56" rx="4.89" transform="translate(103.1 -69.5) rotate(51.21)"/><path class="cls-17" d="M71.15,60.6A64.21,64.21,0,1,0,128,131.37,64.21,64.21,0,0,0,71.15,60.6ZM58.9,173.35a49.2,49.2,0,1,1,54.23-43.6A49.21,49.21,0,0,1,58.9,173.35Z"/><rect class="cls-18" x="52.84" y="33.45" width="39.78" height="18.84" rx="9.42" transform="translate(5.06 -7.61) rotate(6.21)"/><polygon class="cls-19" points="57.96 139.9 67.75 91.82 66.98 140.88 57.96 139.9"/><circle class="cls-20" cx="64.29" cy="123.74" r="8.37"/><circle class="cls-3" cx="64.29" cy="123.74" r="3.49"/></svg>