<svg id="Layer_1" data-name="Layer 1" xmlns="http://www.w3.org/2000/svg" xmlns:xlink="http://www.w3.org/1999/xlink" viewBox="0 0 216 177.75"><defs><style>.cls-1{fill:#4c479a;}.cls-2{fill:url(#linear-gradient);}.cls-3{fill:none;stroke-miterlimit:10;stroke-width:1.54px;stroke:url(#linear-gradient-2);}.cls-3,.cls-4{opacity:0.8;}.cls-4{fill:url(#linear-gradient-3);}.cls-5{fill:url(#linear-gradient-4);}.cls-6{fill:url(#linear-gradient-5);}.cls-7{fill:url(#linear-gradient-6);}.cls-8{fill:url(#linear-gradient-7);}.cls-9{fill:url(#linear-gradient-8);}.cls-10{fill:#fff;}</style><linearGradient id="linear-gradient" x1="28.44" y1="81.5" x2="191.43" y2="81.5" gradientUnits="userSpaceOnUse"><stop offset="0" stop-color="#ec2e6a"/><stop offset="0.13" stop-color="#e72f6b"/><stop offset="0.28" stop-color="#d9306f"/><stop offset="0.44" stop-color="#c23376"/><stop offset="0.61" stop-color="#a2387f"/><stop offset="0.78" stop-color="#793d8a"/><stop offset="0.96" stop-color="#474398"/><stop offset="1" stop-color="#39459c"/></linearGradient><linearGradient id="linear-gradient-2" x1="49.04" y1="81.89" x2="170.74" y2="81.89" gradientUnits="userSpaceOnUse"><stop offset="0" stop-color="#f6b99a"/><stop offset="1" stop-color="#f35099"/></linearGradient><linearGradient id="linear-gradient-3" x1="57.62" y1="81.89" x2="162.16" y2="81.89" xlink:href="#linear-gradient-2"/><linearGradient id="linear-gradient-4" x1="77.54" y1="84.83" x2="139.57" y2="84.83" xlink:href="#linear-gradient"/><linearGradient id="linear-gradient-5" x1="125.41" y1="92.72" x2="131.9" y2="92.72" gradientTransform="translate(-27.88 118.13) rotate(-45)" xlink:href="#linear-gradient"/><linearGradient id="linear-gradient-6" x1="127.74" y1="99.3" x2="134.23" y2="99.3" gradientTransform="translate(-31.85 121.7) rotate(-45)" xlink:href="#linear-gradient"/><linearGradient id="linear-gradient-7" x1="97.2" y1="64.51" x2="103.69" y2="64.51" gradientTransform="translate(217.09 39.11) rotate(135)" xlink:href="#linear-gradient"/><linearGradient id="linear-gradient-8" x1="90.63" y1="62.18" x2="97.12" y2="62.18" gradientTransform="translate(204.22 39.77) rotate(135)" xlink:href="#linear-gradient"/></defs><title>test</title><path class="cls-1" d="M74.08,94.47C68.85,98.09,35.18,120.7.67,128.74a.87.87,0,0,0-.06,1.68c19.6,6.32,33.81,10.79,37.62,12a.86.86,0,0,1,.5,1.25c-2.46,4.38-13.3,23-24.72,32.54a.88.88,0,0,0,.7,1.54C60,171,99.45,142.13,105,137.92a.86.86,0,0,0,.18-1.2l-29.9-42A.88.88,0,0,0,74.08,94.47Z"/><path class="cls-1" d="M141.92,94.47c5.24,3.62,38.91,26.23,73.41,34.27a.87.87,0,0,1,.06,1.68c-19.59,6.32-33.8,10.79-37.62,12a.86.86,0,0,0-.5,1.25c2.46,4.38,13.3,23,24.72,32.54a.88.88,0,0,1-.69,1.54C156.05,171,116.55,142.13,111,137.92a.86.86,0,0,1-.18-1.2l29.91-42A.87.87,0,0,1,141.92,94.47Z"/><path class="cls-2" d="M176.14,125.92h0a13.19,13.19,0,0,0-16.58,18h0a3.44,3.44,0,0,1-5.46,4h0a13.2,13.2,0,0,0-22.2,10.27h0a3.44,3.44,0,0,1-6.57,1.58h0a13.19,13.19,0,0,0-24.43,1h0a3.44,3.44,0,0,1-6.68-1.05h0a13.18,13.18,0,0,0-22.94-8.43h0a3.44,3.44,0,0,1-5.77-3.53h0a13.2,13.2,0,0,0-18-16.58h0a3.44,3.44,0,0,1-4-5.46h0a13.19,13.19,0,0,0-10.26-22.19h0a3.45,3.45,0,0,1-1.58-6.58h0a13.19,13.19,0,0,0-1-24.42h0a3.44,3.44,0,0,1,1.05-6.68h0a13.19,13.19,0,0,0,8.43-23h0a3.44,3.44,0,0,1,3.53-5.77h0a13.19,13.19,0,0,0,16.57-18h0a3.44,3.44,0,0,1,5.47-4h0A13.19,13.19,0,0,0,88,4.85h0a3.44,3.44,0,0,1,6.57-1.58h0a13.19,13.19,0,0,0,24.43-1h0a3.44,3.44,0,0,1,6.68,1.05h0a13.2,13.2,0,0,0,23,8.44h0a3.44,3.44,0,0,1,5.77,3.52h0a13.19,13.19,0,0,0,18,16.58h0a3.44,3.44,0,0,1,4,5.46h0a13.19,13.19,0,0,0,10.26,22.19h0a3.45,3.45,0,0,1,1.59,6.58h0a13.19,13.19,0,0,0,1,24.43h0a3.44,3.44,0,0,1-1.05,6.67h0a13.2,13.2,0,0,0-8.44,23h0A3.44,3.44,0,0,1,176.14,125.92Z"/><circle class="cls-3" cx="109.89" cy="81.89" r="60.08"/><circle class="cls-4" cx="109.89" cy="81.89" r="52.27"/><path class="cls-5" d="M83.05,110.33c-.42-.43,1.06-1.91.43-3s-5.09-3.4-5.73-4.46.21-3.18,1.91-4,6.79,2.55,8.06,2.12,17.6-19.72,17.6-19.72-21.84-16.76-22.27-18,.43-3,2.76-3.6S115.72,70,115.72,70s11-12.73,16.33-15.06,6.78-.42,6.78-.42,1.91,1.48-.42,6.78-15.06,16.33-15.06,16.33,11,27.58,10.39,29.91-2.33,3.18-3.6,2.76-18-22.27-18-22.27-19.3,16.33-19.72,17.6,3,6.36,2.12,8.06-3,2.54-4,1.91-3.4-5.09-4.46-5.73S83.48,110.75,83.05,110.33Z"/><rect class="cls-6" x="126.85" y="89.12" width="3.6" height="7.2" rx="1.38" transform="translate(103.25 -63.81) rotate(45)"/><rect class="cls-7" x="129.19" y="95.7" width="3.6" height="7.2" rx="1.38" transform="translate(108.58 -63.54) rotate(45)"/><rect class="cls-8" x="98.65" y="60.92" width="3.6" height="7.2" rx="1.38" transform="translate(125.85 181.16) rotate(-135)"/><rect class="cls-9" x="92.07" y="58.58" width="3.6" height="7.2" rx="1.38" transform="translate(116.28 172.53) rotate(-135)"/><path class="cls-10" d="M83.05,108.78c-.42-.42,1.06-1.91.43-3s-5.09-3.39-5.73-4.45.21-3.18,1.91-4,6.79,2.54,8.06,2.12,17.6-19.73,17.6-19.73S83.48,63,83.05,61.7s.43-3,2.76-3.61,29.91,10.39,29.91,10.39,11-12.72,16.33-15.05,6.78-.43,6.78-.43,1.91,1.49-.42,6.79-15.06,16.33-15.06,16.33,11,27.57,10.39,29.9-2.33,3.18-3.6,2.76-18-22.27-18-22.27-19.3,16.33-19.72,17.6,3,6.37,2.12,8.06-3,2.55-4,1.91S87.08,109,86,108.36,83.48,109.2,83.05,108.78Z"/><rect class="cls-10" x="126.85" y="87.58" width="3.6" height="7.2" rx="1.38" transform="translate(102.15 -64.27) rotate(45)"/><rect class="cls-10" x="129.19" y="94.15" width="3.6" height="7.2" rx="1.38" transform="translate(107.49 -63.99) rotate(45)"/><rect class="cls-10" x="98.65" y="59.37" width="3.6" height="7.2" rx="1.38" transform="translate(126.94 178.52) rotate(-135)"/><rect class="cls-10" x="92.07" y="57.04" width="3.6" height="7.2" rx="1.38" transform="translate(117.37 169.89) rotate(-135)"/></svg>