<svg id="Layer_1" data-name="Layer 1" xmlns="http://www.w3.org/2000/svg" xmlns:xlink="http://www.w3.org/1999/xlink" viewBox="0 0 153.74 176.82"><defs><style>.cls-1{fill:none;stroke:#e1e1e1;stroke-miterlimit:10;stroke-width:1.49px;}.cls-2{fill:url(#linear-gradient);}.cls-11,.cls-3{fill:#e1e1e1;}.cls-4{fill:#fff;}.cls-5{fill:url(#linear-gradient-2);}.cls-6{fill:url(#linear-gradient-3);}.cls-7{fill:url(#linear-gradient-4);}.cls-8{fill:url(#linear-gradient-5);}.cls-9{fill:url(#linear-gradient-6);}.cls-10{fill:url(#linear-gradient-7);}.cls-11{opacity:0.3;}</style><linearGradient id="linear-gradient" x1="21.12" y1="157.75" x2="110.75" y2="157.75" gradientUnits="userSpaceOnUse"><stop offset="0" stop-color="#f6b99a"/><stop offset="1" stop-color="#f35099"/></linearGradient><linearGradient id="linear-gradient-2" x1="15.5" y1="65.09" x2="15.5" y2="52.36" gradientUnits="userSpaceOnUse"><stop offset="0.01" stop-color="#4d5b8a"/><stop offset="0.13" stop-color="#4c5881"/><stop offset="0.7" stop-color="#454a57"/><stop offset="1" stop-color="#434447"/></linearGradient><linearGradient id="linear-gradient-3" x1="40.87" y1="68.18" x2="40.87" y2="47.29" xlink:href="#linear-gradient-2"/><linearGradient id="linear-gradient-4" x1="65.49" y1="68.14" x2="65.49" y2="45.33" xlink:href="#linear-gradient-2"/><linearGradient id="linear-gradient-5" x1="3984.05" y1="65.09" x2="3984.05" y2="52.36" gradientTransform="matrix(-1, 0, 0, 1, 4121.97, 0)" xlink:href="#linear-gradient-2"/><linearGradient id="linear-gradient-6" x1="4009.42" y1="68.08" x2="4009.42" y2="47.29" gradientTransform="matrix(-1, 0, 0, 1, 4121.97, 0)" xlink:href="#linear-gradient-2"/><linearGradient id="linear-gradient-7" x1="4034.06" y1="68.14" x2="4034.06" y2="45.33" gradientTransform="matrix(-1, 0, 0, 1, 4121.97, 0)" xlink:href="#linear-gradient-2"/></defs><title>test</title><line class="cls-1" x1="20.72" y1="64.83" x2="61.62" y2="161.5"/><line class="cls-1" x1="54.19" y1="67.8" x2="71.29" y2="160.01"/><line class="cls-1" x1="99.55" y1="67.8" x2="80.42" y2="165.69"/><line class="cls-1" x1="133.01" y1="64.83" x2="89.88" y2="165.96"/><path class="cls-2" d="M21.47,147.37c1.35-6,12.64-11.9,20.82-6.69s-.75,16.36,6,21.56,11.15-7.44,20.82-7.44,8.18,10.42,15.61,9.67,11.16-8.18,20.08-3.72,7.44,16.36-1.49,11.9-11.89,4.46-21.56,3S75,163.73,67.57,165.22s-8.92,14.12-23,11.15-5.58-17.48-9.3-19.71S18.86,158.89,21.47,147.37Z"/><circle class="cls-3" cx="30.02" cy="146.25" r="4.09"/><circle class="cls-4" cx="29.27" cy="146.25" r="4.09"/><circle class="cls-3" cx="41.54" cy="146.63" r="4.46"/><circle class="cls-4" cx="40.8" cy="146.63" r="4.46"/><circle cx="39.31" cy="146.63" r="2.23"/><circle cx="28.16" cy="146.63" r="2.23"/><path d="M28.4,139.43a5.82,5.82,0,0,1,0,1l-.56.49-1.1,1-1.1,1-.55.49a7.82,7.82,0,0,1-1.05-.07,8.45,8.45,0,0,1,.06-1l.55-.49,1.1-1,1.11-1c.18-.17.37-.32.54-.5A5.61,5.61,0,0,1,28.4,139.43Z"/><path d="M45.88,142.82a5,5,0,0,1-1,.3c-.21-.13-.43-.24-.64-.36L42.94,142l-1.29-.71L41,141a8.15,8.15,0,0,1-.28-1,7.45,7.45,0,0,1,1-.29l.64.36,1.29.71,1.29.72.65.35A5.27,5.27,0,0,1,45.88,142.82Z"/><path class="cls-5" d="M.42,60.12a61.1,61.1,0,0,1,30.16-7.76c-5.5,3.1-10.1,12.73-10.1,12.73A34.75,34.75,0,0,0,.42,60.12Z"/><path class="cls-6" d="M20.46,65.05a40.49,40.49,0,0,1,33.8,3.13c.59-8.68,4.81-18.22,7-20.89-7.84.5-18.88,5.17-21.1,7.17C36.93,52.79,30,52.29,30,52.29A30.42,30.42,0,0,0,20.46,65.05Z"/><path class="cls-7" d="M60.75,47.12s10.23-2.33,16-1.67c0,3.67-.07,17-.07,17a54.09,54.09,0,0,0-22.44,5.67C54.83,58.63,60.75,47.12,60.75,47.12Z"/><path class="cls-8" d="M153,60.12a61.1,61.1,0,0,0-30.16-7.76c5.5,3.1,10.1,12.73,10.1,12.73A34.75,34.75,0,0,1,153,60.12Z"/><path class="cls-9" d="M133,65.05a40.25,40.25,0,0,0-33.8,3c-.59-8.67-4.8-18.12-7-20.79,7.84.5,18.88,5.17,21.1,7.17,3.25-1.67,10.2-2.17,10.2-2.17A30.42,30.42,0,0,1,133,65.05Z"/><path class="cls-10" d="M92.67,47.12s-10.23-2.33-16-1.67c0,3.67,0,17,0,17a54.36,54.36,0,0,1,22.53,5.67C98.59,58.63,92.67,47.12,92.67,47.12Z"/><path class="cls-4" d="M.33,60.14S12.88,7,76.73,0C61.66,12.25,48.63,29.06,41.52,55.07,21.64,48.53.33,60.14.33,60.14Z"/><path class="cls-11" d="M11.15,44.34S36.91,7.82,70.08,2.78c-11.93,4-29.94,16.38-41,39.07C21.42,40.52,11.15,44.34,11.15,44.34Z"/><path class="cls-4" d="M153.09,60.14S140.54,7,76.69,0c14.61,11.91,28.1,29.06,35.21,55.07C131.78,48.53,153.09,60.14,153.09,60.14Z"/><path class="cls-11" d="M142,44.34S116.21,7.82,83,2.78C95,6.81,113,19.16,124,41.85,131.7,40.52,142,44.34,142,44.34Z"/><path class="cls-4" d="M76.69.06s27.43,19.34,35.23,55c0,0-11.67-8.86-35.06-8.86h-.3c-23.39,0-35.06,8.86-35.06,8.86C49.3,19.4,76.69.06,76.69.06Z"/><path class="cls-11" d="M76.7,4.61s15.81,15.33,21.88,37.8c0,0-7.25-6.08-21.78-6.08h-.18c-14.53,0-21.78,6.08-21.78,6.08C63.91,17.27,76.7,4.61,76.7,4.61Z"/><line class="cls-1" x1="0.65" y1="60.37" x2="62.63" y2="168.52"/><line class="cls-1" x1="41.54" y1="55.16" x2="67.57" y2="165.22"/><line class="cls-1" x1="112.19" y1="55.16" x2="76.23" y2="173.71"/><line class="cls-1" x1="153.09" y1="60.37" x2="93.77" y2="173.32"/></svg>