<svg id="Layer_1" data-name="Layer 1" xmlns="http://www.w3.org/2000/svg" xmlns:xlink="http://www.w3.org/1999/xlink" viewBox="0 0 110 110"><defs><style>.cls-1{fill:url(#linear-gradient);}.cls-2{fill:url(#radial-gradient);}.cls-3{fill:#353638;}.cls-4{opacity:0.1;}.cls-5{fill:#fff;}.cls-6{opacity:0.25;}.cls-7{fill:none;stroke:#d38cbd;stroke-miterlimit:10;stroke-width:2.9941px;}</style><linearGradient id="linear-gradient" x1="40.7466" y1="96.5799" x2="81.2534" y2="26.4201" gradientUnits="userSpaceOnUse"><stop offset="0.0013" stop-color="#625ab6"/><stop offset="0.1726" stop-color="#7869b3"/><stop offset="1" stop-color="#e1b0a6"/></linearGradient><radialGradient id="radial-gradient" cx="30.7243" cy="32.4257" r="24.0699" gradientUnits="userSpaceOnUse"><stop offset="0.0147" stop-color="#4d5b8a"/><stop offset="0.2808" stop-color="#4c5a87"/><stop offset="0.5089" stop-color="#4b567c"/><stop offset="0.7231" stop-color="#48506a"/><stop offset="0.9276" stop-color="#454852"/><stop offset="1" stop-color="#434447"/></radialGradient></defs><title>options</title><circle class="cls-1" cx="61" cy="61.5" r="40.5"/><circle class="cls-2" cx="30.7243" cy="32.4257" r="24.0699"/><path class="cls-3" d="M30.7244,8.3558a24.07,24.07,0,1,1-24.07,24.07,24.07,24.07,0,0,1,24.07-24.07m0-.5507A24.6207,24.6207,0,1,0,55.345,32.4257,24.6486,24.6486,0,0,0,30.7244,7.8051Z"/><g class="cls-4"><path class="cls-5" d="M6.9849,31.98a20.5852,20.5852,0,0,1,1.4978-8.9741,22.7544,22.7544,0,0,1,5.1938-7.6383A24.4939,24.4939,0,0,1,30.6141,8.3879a24.42,24.42,0,0,1,16.94,6.9774,22.7643,22.7643,0,0,1,5.1945,7.6393A20.584,20.584,0,0,1,54.2434,31.98a22.74,22.74,0,0,0-7.707-15.5259,24.1568,24.1568,0,0,0-15.9223-6.1578A24.1468,24.1468,0,0,0,14.69,16.4518,22.7269,22.7269,0,0,0,6.9849,31.98Z"/></g><g class="cls-6"><path class="cls-3" d="M42.3263,20.9391V44.1432H19.1223V20.9391h23.204m2.078-2.078h-27.36v27.36h27.36v-27.36Z"/></g><rect class="cls-7" x="19.1223" y="20.9392" width="23.2041" height="23.2041"/></svg>