<svg id="Layer_1" data-name="Layer 1" xmlns="http://www.w3.org/2000/svg" xmlns:xlink="http://www.w3.org/1999/xlink" viewBox="0 0 110 110"><defs><style>.cls-1{fill:url(#linear-gradient);}.cls-2{fill:url(#radial-gradient);}.cls-3{fill:#353638;}.cls-4{opacity:0.1;}.cls-5{fill:#fff;}.cls-6{opacity:0.25;}.cls-7{fill:none;stroke:#41cf95;stroke-miterlimit:10;stroke-width:3.4396px;}</style><linearGradient id="linear-gradient" x1="82.2534" y1="26.4201" x2="41.7466" y2="96.5799" gradientUnits="userSpaceOnUse"><stop offset="0" stop-color="#5ccfab"/><stop offset="0.6038" stop-color="#3f8c7d"/><stop offset="1" stop-color="#2b5e5d"/></linearGradient><radialGradient id="radial-gradient" cx="30.4362" cy="32.9362" r="24.9362" gradientUnits="userSpaceOnUse"><stop offset="0.0147" stop-color="#4d5b8a"/><stop offset="0.2808" stop-color="#4c5a87"/><stop offset="0.5089" stop-color="#4b567c"/><stop offset="0.7231" stop-color="#48506a"/><stop offset="0.9276" stop-color="#454852"/><stop offset="1" stop-color="#434447"/></radialGradient></defs><title>option04</title><circle class="cls-1" cx="62" cy="61.5" r="40.5"/><circle class="cls-2" cx="30.4362" cy="32.9362" r="24.9362"/><path class="cls-3" d="M30.4362,8A24.9362,24.9362,0,1,1,5.5,32.9363,24.9362,24.9362,0,0,1,30.4362,8m0-.5706A25.5068,25.5068,0,1,0,55.943,32.9363,25.5358,25.5358,0,0,0,30.4362,7.4294Z"/><g class="cls-4"><path class="cls-5" d="M5.8424,32.4741A21.3255,21.3255,0,0,1,7.394,23.1772a23.5733,23.5733,0,0,1,5.3809-7.9133A25.3115,25.3115,0,0,1,30.3221,8.0332a25.2977,25.2977,0,0,1,17.5491,7.2285,23.5815,23.5815,0,0,1,5.3815,7.9143,21.3252,21.3252,0,0,1,1.549,9.2981,23.5584,23.5584,0,0,0-7.9844-16.0847A25.0269,25.0269,0,0,0,30.3221,10.01a25.0173,25.0173,0,0,0-16.4973,6.3772A23.5457,23.5457,0,0,0,5.8424,32.4741Z"/></g><g class="cls-6"><path class="cls-3" d="M30.4417,19.8875,43.8508,43.1128H17.0325L30.4417,19.8875m0-4.3055-1.8644,3.229L15.1682,42.0364l-1.8644,3.2292H47.58l-1.8644-3.2292L32.306,18.811l-1.8643-3.229Z"/></g><polygon class="cls-7" points="30.442 19.888 17.032 43.113 43.851 43.113 30.442 19.888"/></svg>