<svg id="Layer_1" data-name="Layer 1" xmlns="http://www.w3.org/2000/svg" xmlns:xlink="http://www.w3.org/1999/xlink" viewBox="0 0 110 110"><defs><style>.cls-1{fill:url(#linear-gradient);}.cls-2{fill:url(#radial-gradient);}.cls-3{fill:#353638;}.cls-4{opacity:0.1;}.cls-5{fill:#fff;}.cls-6{opacity:0.25;}.cls-7,.cls-8{fill:none;stroke-miterlimit:10;}.cls-7{stroke:#353638;stroke-width:4.2714px;}.cls-8{stroke:#6c8bc7;stroke-width:3.3479px;}</style><linearGradient id="linear-gradient" x1="82.2534" y1="26.4201" x2="41.7466" y2="96.5799" gradientUnits="userSpaceOnUse"><stop offset="0" stop-color="#40aaab"/><stop offset="0.154" stop-color="#3ba6ad"/><stop offset="0.3308" stop-color="#2d9bb4"/><stop offset="0.5182" stop-color="#1688bf"/><stop offset="0.5284" stop-color="#1587c0"/><stop offset="0.7169" stop-color="#2d6ca6"/><stop offset="1" stop-color="#4d4882"/></linearGradient><radialGradient id="radial-gradient" cx="30.7243" cy="32.9301" r="24.0699" gradientUnits="userSpaceOnUse"><stop offset="0.0147" stop-color="#4d5b8a"/><stop offset="0.2808" stop-color="#4c5a87"/><stop offset="0.5089" stop-color="#4b567c"/><stop offset="0.7231" stop-color="#48506a"/><stop offset="0.9276" stop-color="#454852"/><stop offset="1" stop-color="#434447"/></radialGradient></defs><title>options</title><circle class="cls-1" cx="62" cy="61.5" r="40.5"/><circle class="cls-2" cx="30.7243" cy="32.9301" r="24.0699"/><path class="cls-3" d="M30.7243,8.86a24.07,24.07,0,1,1-24.07,24.07,24.07,24.07,0,0,1,24.07-24.07m0-.5508A24.6207,24.6207,0,1,0,55.345,32.93,24.6486,24.6486,0,0,0,30.7243,8.3094Z"/><g class="cls-4"><path class="cls-5" d="M6.9849,32.4842A20.5864,20.5864,0,0,1,8.4826,23.51a22.754,22.754,0,0,1,5.194-7.6383A24.4935,24.4935,0,0,1,30.6142,8.8923a24.4181,24.4181,0,0,1,16.94,6.9774,22.7633,22.7633,0,0,1,5.1945,7.6393,20.585,20.585,0,0,1,1.4952,8.9752,22.74,22.74,0,0,0-7.7071-15.526,24.1562,24.1562,0,0,0-15.9221-6.1577A24.148,24.148,0,0,0,14.69,16.9561,22.7272,22.7272,0,0,0,6.9849,32.4842Z"/></g><g class="cls-6"><line class="cls-7" x1="17.6215" y1="46.1483" x2="43.8271" y2="19.9428"/><line class="cls-7" x1="17.6215" y1="19.9428" x2="43.8271" y2="46.1483"/></g><line class="cls-8" x1="17.6215" y1="46.1483" x2="43.8271" y2="19.9428"/><line class="cls-8" x1="17.6215" y1="19.9428" x2="43.8271" y2="46.1483"/></svg>