<svg id="Layer_1" data-name="Layer 1" xmlns="http://www.w3.org/2000/svg" xmlns:xlink="http://www.w3.org/1999/xlink" viewBox="0 0 110 110"><defs><style>.cls-1{fill:url(#linear-gradient);}.cls-2{fill:url(#radial-gradient);}.cls-3{fill:#353638;}.cls-4{opacity:0.1;}.cls-5{fill:#fff;}.cls-6{opacity:0.25;}.cls-7{fill:none;stroke:#dd5f64;stroke-miterlimit:10;stroke-width:3.2597px;}</style><linearGradient id="linear-gradient" x1="82.2534" y1="26.4201" x2="41.7466" y2="96.5799" gradientUnits="userSpaceOnUse"><stop offset="0" stop-color="#ec499b"/><stop offset="0.0921" stop-color="#e7499b"/><stop offset="0.1978" stop-color="#d9489b"/><stop offset="0.3102" stop-color="#c2479b"/><stop offset="0.4266" stop-color="#a2459a"/><stop offset="0.495" stop-color="#8c449a"/><stop offset="0.7635" stop-color="#5e459b"/><stop offset="0.9987" stop-color="#39459c"/></linearGradient><radialGradient id="radial-gradient" cx="30.42" cy="32.7325" r="24.0699" gradientUnits="userSpaceOnUse"><stop offset="0.0147" stop-color="#4d5b8a"/><stop offset="0.2808" stop-color="#4c5a87"/><stop offset="0.5089" stop-color="#4b567c"/><stop offset="0.7231" stop-color="#48506a"/><stop offset="0.9276" stop-color="#454852"/><stop offset="1" stop-color="#434447"/></radialGradient></defs><title>options</title><circle class="cls-1" cx="62" cy="61.5" r="40.5"/><circle class="cls-2" cx="30.42" cy="32.7325" r="24.0699"/><path class="cls-3" d="M30.42,8.6627a24.07,24.07,0,1,1-24.07,24.07,24.07,24.07,0,0,1,24.07-24.07m0-.5508A24.6207,24.6207,0,1,0,55.0406,32.7325,24.6486,24.6486,0,0,0,30.42,8.1119Z"/><g class="cls-4"><path class="cls-5" d="M6.6806,32.2866a20.5869,20.5869,0,0,1,1.4977-8.9741,22.7559,22.7559,0,0,1,5.194-7.6384A24.4934,24.4934,0,0,1,30.31,8.6947a24.4192,24.4192,0,0,1,16.94,6.9774,22.7639,22.7639,0,0,1,5.1945,7.6392,20.5859,20.5859,0,0,1,1.4952,8.9753,22.7392,22.7392,0,0,0-7.707-15.5259A24.1574,24.1574,0,0,0,30.31,10.6028a24.1486,24.1486,0,0,0-15.9242,6.1557A22.7276,22.7276,0,0,0,6.6806,32.2866Z"/></g><g class="cls-6"><path class="cls-3" d="M30.3623,19.9761A12.8142,12.8142,0,1,1,17.5481,32.79,12.8142,12.8142,0,0,1,30.3623,19.9761m0-2.078A14.8922,14.8922,0,1,0,45.2545,32.79,14.9091,14.9091,0,0,0,30.3623,17.8981Z"/></g><circle class="cls-7" cx="30.3623" cy="32.7903" r="12.8142"/></svg>