<svg id="Layer_1" data-name="Layer 1" xmlns="http://www.w3.org/2000/svg" xmlns:xlink="http://www.w3.org/1999/xlink" viewBox="0 0 277.4959 228.3478"><defs><style>.cls-1{fill:#4c479a;}.cls-2{fill:url(#linear-gradient);}.cls-3{fill:none;stroke-miterlimit:10;stroke-width:1.9848px;stroke:url(#linear-gradient-2);}.cls-3,.cls-4{opacity:0.8;}.cls-4{fill:url(#linear-gradient-3);}.cls-5{fill:url(#linear-gradient-4);}.cls-6{fill:url(#linear-gradient-5);}.cls-7{fill:url(#linear-gradient-6);}.cls-8{fill:url(#linear-gradient-7);}.cls-9{fill:url(#linear-gradient-8);}.cls-10{fill:#fff;}</style><linearGradient id="linear-gradient" x1="36.5325" y1="104.6964" x2="245.9253" y2="104.6964" gradientUnits="userSpaceOnUse"><stop offset="0" stop-color="#ec2e6a"/><stop offset="0.1311" stop-color="#e72f6b"/><stop offset="0.2817" stop-color="#d9306f"/><stop offset="0.4419" stop-color="#c23376"/><stop offset="0.609" stop-color="#a2387f"/><stop offset="0.7812" stop-color="#793d8a"/><stop offset="0.9554" stop-color="#474398"/><stop offset="0.9987" stop-color="#39459c"/></linearGradient><linearGradient id="linear-gradient-2" x1="62.9964" y1="105.2042" x2="219.3499" y2="105.2042" gradientUnits="userSpaceOnUse"><stop offset="0" stop-color="#f6b99a"/><stop offset="1" stop-color="#f35099"/></linearGradient><linearGradient id="linear-gradient-3" x1="74.0228" y1="105.2042" x2="208.3235" y2="105.2042" xlink:href="#linear-gradient-2"/><linearGradient id="linear-gradient-4" x1="99.616" y1="108.9737" x2="179.3017" y2="108.9737" xlink:href="#linear-gradient"/><linearGradient id="linear-gradient-5" x1="161.1093" y1="119.119" x2="169.4482" y2="119.119" gradientTransform="translate(-35.8209 151.7589) rotate(-45)" xlink:href="#linear-gradient"/><linearGradient id="linear-gradient-6" x1="164.1064" y1="127.5654" x2="172.4453" y2="127.5654" gradientTransform="translate(-40.9155 156.3521) rotate(-45)" xlink:href="#linear-gradient"/><linearGradient id="linear-gradient-7" x1="124.8716" y1="82.8813" x2="133.2105" y2="82.8813" gradientTransform="translate(278.8928 50.2415) rotate(135)" xlink:href="#linear-gradient"/><linearGradient id="linear-gradient-8" x1="116.4252" y1="79.8842" x2="124.7641" y2="79.8842" gradientTransform="translate(262.3547 51.0976) rotate(135)" xlink:href="#linear-gradient"/></defs><title>Untitled-10</title><path class="cls-1" d="M95.1729,121.3645c-6.7253,4.6447-49.9823,33.6968-94.3118,44.03a1.12,1.12,0,0,0-.08,2.1567c25.1765,8.11,43.4343,13.8584,48.3339,15.3967a1.1164,1.1164,0,0,1,.643,1.6147c-3.1611,5.6246-17.0847,29.5587-31.7573,41.8027a1.1217,1.1217,0,0,0,.8919,1.9685c58.13-8.6244,108.87-45.7364,116.017-51.1474a1.1175,1.1175,0,0,0,.2319-1.5421L96.72,121.641A1.1167,1.1167,0,0,0,95.1729,121.3645Z"/><path class="cls-1" d="M182.323,121.3645c6.7254,4.6447,49.9824,33.6968,94.3118,44.03a1.12,1.12,0,0,1,.08,2.1567c-25.1765,8.11-43.4343,13.8584-48.3339,15.3967a1.1165,1.1165,0,0,0-.643,1.6147c3.1611,5.6246,17.0847,29.5587,31.7574,41.8027a1.1217,1.1217,0,0,1-.892,1.9685c-58.13-8.6244-108.8695-45.7364-116.017-51.1474a1.1174,1.1174,0,0,1-.2318-1.5421l38.4215-54.0037A1.1167,1.1167,0,0,1,182.323,121.3645Z"/><path class="cls-2" d="M226.28,161.77h0c-14.245-5.3536-27.7807,9.3235-21.2939,23.0894h0a4.4218,4.4218,0,0,1-7.0211,5.1137h0c-11.1119-10.3974-29.2339-2.0174-28.509,13.1831h0a4.4219,4.4219,0,0,1-8.4437,2.0376h0c-6.2872-13.8583-26.2366-13.0512-31.3838,1.27h0a4.4218,4.4218,0,0,1-8.5806-1.3488h0c-.5052-15.2094-19.2449-22.098-29.4807-10.837h0a4.4218,4.4218,0,0,1-7.4113-4.53h0c5.3536-14.245-9.3234-27.7807-23.0894-21.2939h0a4.4218,4.4218,0,0,1-5.1136-7.0212h0C66.35,150.32,57.97,132.1983,42.77,132.9232h0A4.4218,4.4218,0,0,1,40.732,124.48h0c13.8583-6.2872,13.0512-26.2366-1.27-31.3838h0a4.4218,4.4218,0,0,1,1.3488-8.5806h0C56.0206,84.01,62.9093,65.27,51.6483,55.0345h0a4.4218,4.4218,0,0,1,4.53-7.4113h0C70.423,52.9768,83.9587,38.3,77.472,24.5338h0A4.4219,4.4219,0,0,1,84.4931,19.42h0c11.112,10.3974,29.234,2.0174,28.509-13.1831h0A4.4218,4.4218,0,0,1,121.4457,4.2h0c6.2872,13.8583,26.2366,13.0512,31.3838-1.27h0A4.4218,4.4218,0,0,1,161.41,4.2786h0c.5053,15.2094,19.245,22.098,29.4807,10.837h0a4.4218,4.4218,0,0,1,7.4112,4.53h0c-5.3536,14.245,9.3235,27.7807,23.09,21.2939h0a4.4219,4.4219,0,0,1,5.1137,7.0212h0c-10.3973,11.1119-2.0174,29.2339,13.1831,28.509h0a4.4218,4.4218,0,0,1,2.0376,8.4436h0c-13.8583,6.2872-13.0512,26.2366,1.27,31.3838h0a4.4218,4.4218,0,0,1-1.3488,8.5806h0c-15.2093.5053-22.098,19.245-10.837,29.4807h0A4.4218,4.4218,0,0,1,226.28,161.77Z"/><circle class="cls-3" cx="141.1732" cy="105.2042" r="77.1843"/><circle class="cls-4" cx="141.1732" cy="105.2042" r="67.1504"/><path class="cls-5" d="M106.699,141.7336c-.5449-.545,1.3623-2.4522.5449-3.8145s-6.5391-4.3595-7.3565-5.7218.2725-4.0869,2.4522-5.1768,8.7188,3.27,10.3536,2.7246,22.6145-25.3391,22.6145-25.3391S107.2439,82.8813,106.699,81.2466s.5449-3.8145,3.542-4.6319,38.4175,13.3507,38.4175,13.3507,14.1681-16.3478,20.98-19.3449,8.7188-.545,8.7188-.545,2.4522,1.9073-.5449,8.7189-19.3449,20.98-19.3449,20.98,14.1681,35.42,13.3507,38.4174-2.9971,4.087-4.6319,3.5421-23.1594-28.6088-23.1594-28.6088-24.7943,20.98-25.3392,22.6146,3.8145,8.1739,2.7247,10.3536-3.8145,3.27-5.1769,2.4522-4.3594-6.5392-5.7217-7.3566S107.2439,142.2785,106.699,141.7336Z"/><rect class="cls-6" x="162.9668" y="114.4952" width="4.6239" height="9.2477" rx="1.769" transform="translate(132.6389 -81.9806) rotate(45)"/><rect class="cls-7" x="165.9639" y="122.9416" width="4.6239" height="9.2477" rx="1.769" transform="translate(139.4892 -81.626) rotate(45)"/><rect class="cls-8" x="126.7291" y="78.2575" width="4.6239" height="9.2477" rx="1.769" transform="translate(161.6809 232.7331) rotate(-135)"/><rect class="cls-9" x="118.2827" y="75.2604" width="4.6239" height="9.2477" rx="1.769" transform="translate(149.3813 221.6442) rotate(-135)"/><path class="cls-10" d="M106.699,139.7488c-.5449-.5449,1.3623-2.4522.5449-3.8145s-6.5391-4.3594-7.3565-5.7217.2725-4.087,2.4522-5.1769,8.7188,3.27,10.3536,2.7247,22.6145-25.3392,22.6145-25.3392S107.2439,80.8966,106.699,79.2618s.5449-3.8145,3.542-4.6319,38.4175,13.3507,38.4175,13.3507,14.1681-16.3478,20.98-19.3449,8.7188-.5449,8.7188-.5449,2.4522,1.9072-.5449,8.7188-19.3449,20.98-19.3449,20.98,14.1681,35.42,13.3507,38.4175-2.9971,4.0869-4.6319,3.542S144.0266,111.14,144.0266,111.14s-24.7943,20.98-25.3392,22.6145,3.8145,8.1739,2.7247,10.3536-3.8145,3.27-5.1769,2.4522-4.3594-6.5391-5.7217-7.3565S107.2439,140.2937,106.699,139.7488Z"/><rect class="cls-10" x="162.9668" y="112.5104" width="4.6239" height="9.2477" rx="1.769" transform="translate(131.2355 -82.5619) rotate(45)"/><rect class="cls-10" x="165.9639" y="120.9568" width="4.6239" height="9.2477" rx="1.769" transform="translate(138.0858 -82.2073) rotate(45)"/><rect class="cls-10" x="126.7291" y="76.2727" width="4.6239" height="9.2477" rx="1.769" transform="translate(163.0843 229.3449) rotate(-135)"/><rect class="cls-10" x="118.2827" y="73.2756" width="4.6239" height="9.2477" rx="1.769" transform="translate(150.7847 218.256) rotate(-135)"/></svg>