<svg id="Layer_1" data-name="Layer 1" xmlns="http://www.w3.org/2000/svg" xmlns:xlink="http://www.w3.org/1999/xlink" viewBox="0 0 145 175"><defs><style>.cls-1{fill:#f2f2f2;}.cls-2{fill:url(#linear-gradient);}.cls-3{fill:#fff;}.cls-4{fill:#eef4ff;}.cls-5{fill:#686f79;}.cls-6{fill:#bcc3cd;}.cls-7{fill:#868c96;}.cls-8{fill:#b3bac4;}.cls-9{fill:#c6cdd7;}.cls-10{fill:#9097a1;}.cls-11{fill:#a2abcc;}.cls-12{fill:#696f82;}.cls-13{fill:#586075;}.cls-14{fill:#b7bcd4;}.cls-15{fill:#5e657b;}.cls-16{fill:#801e26;}.cls-17{fill:#44080c;}.cls-18{fill:#2d0509;}.cls-19{fill:#6e0f17;}</style><linearGradient id="linear-gradient" x1="8.5" y1="102.71" x2="135.32" y2="102.71" gradientUnits="userSpaceOnUse"><stop offset="0" stop-color="#f6b99a"/><stop offset="1" stop-color="#f35099"/></linearGradient></defs><title>worm</title><circle class="cls-1" cx="75.59" cy="106.39" r="63.41"/><circle class="cls-2" cx="71.91" cy="102.71" r="63.41"/><polygon class="cls-3" points="38.68 17.93 65.36 7 85.53 7.33 103.68 14.2 114.13 22.11 121.88 32.26 126.97 48.23 92.92 37.35 91.03 51.19 67.34 49.27 43.37 47.66 19.23 56.06 22.47 39.76 28.54 28.51 38.68 17.93"/><polygon class="cls-4" points="90.88 51.2 128.2 63.16 126.89 48.16 92.6 36.92 90.88 51.2"/><polygon class="cls-5" points="19.31 56.13 28.82 68.42 31.62 51.38 19.31 56.13"/><polygon class="cls-6" points="28.82 68.42 64.96 79.33 66.2 64.48 31.14 54.26 28.82 68.42"/><polygon class="cls-7" points="31.14 54.26 31.57 51.4 43.29 47.59 67.26 49.2 66.2 64.48 31.14 54.26"/><polygon class="cls-4" points="64.96 79.33 106.75 82 105.91 67.42 66.2 64.48 64.96 79.33"/><polygon class="cls-8" points="66.2 64.48 67.26 49.2 91.55 51.24 104.75 55.46 105.91 67.42 66.2 64.48"/><polygon class="cls-9" points="106.75 82 121.43 73.92 128.2 63.16 105.91 67.42 106.75 82"/><polygon class="cls-10" points="105.91 67.42 104.78 55.4 128.2 63.16 105.91 67.42"/><polygon class="cls-11" points="29.54 64.12 30.29 59.01 67.83 129.31 64.9 130.22 29.54 64.12"/><polygon class="cls-12" points="29.54 64.12 29.92 61.86 65.75 130 64.9 130.22 29.54 64.12"/><polygon class="cls-13" points="43.36 47.51 76.31 141.95 78.59 142.57 47.26 47.88 43.36 47.51"/><polygon class="cls-14" points="108.46 68.85 108.62 74.36 75.15 134.7 73.92 131.49 108.46 68.85"/><polygon class="cls-15" points="122.65 61.32 68.92 143.12 70.03 144.25 126 62.47 122.65 61.32"/><polygon class="cls-16" points="41.13 134.72 40.63 136.54 46 136.38 57.73 127.5 62.69 127.2 61.56 122.72 54.04 123.08 41.13 134.72"/><polygon class="cls-17" points="40.63 136.54 40.34 139.24 47.37 139.43 57.77 130.78 61.48 130.56 67.6 135.74 80.07 152.78 85.17 155.77 91.61 156.29 105.12 147.16 105.86 144.58 102.3 143.52 91.8 153.07 86.19 152.87 82.32 150.41 69.37 132.8 62.63 127.22 57.73 127.5 46 136.38 40.63 136.54"/><polygon class="cls-18" points="40.34 139.24 43.2 142.21 47.53 142.26 57.94 133.21 60.92 133.21 76.71 152.75 83.38 157.14 91.56 157.94 101.27 151.02 105.12 147.16 91.61 156.29 85.17 155.77 80.07 152.78 67.6 135.74 61.48 130.56 57.77 130.78 47.37 139.43 40.34 139.24"/><polygon class="cls-19" points="61.56 122.72 71.83 129.43 86.23 148.25 90.06 148.7 98.29 139.94 102.62 139.99 105.72 144.59 102.38 143.74 91.73 153.15 86.05 152.88 82.17 150.42 69.22 132.81 62.49 127.22 61.56 122.72"/></svg>